<svg height="448pt" viewBox="0 0 448.04437 448" width="448pt" xmlns="http://www.w3.org/2000/svg"><path d="m216 120.023438c-.007812-13.667969 3.191406-27.144532 9.335938-39.351563l-20.183594-16.648437h-112.304688l62.222656 56zm0 0"/><path d="m64 152.023438h16v24h-16zm0 0"/><path d="m204.839844 235.222656 11.160156-7.480468v-91.71875h-56v136h35.152344c-2.039063-3.960938-3.117188-8.347657-3.152344-12.800782-.007812-9.644531 4.8125-18.65625 12.839844-24zm0 0"/><path d="m56 224.023438h32v48h-32zm0 0"/><path d="m208 259.222656c.03125 7.070313 5.769531 12.789063 12.839844 12.800782h214.359375c5.660156 0 10.65625-3.703126 12.292969-9.121094 1.640624-5.417969-.460938-11.269532-5.171876-14.40625l-14.71875-9.816406c-2.242187-1.476563-3.59375-3.976563-3.601562-6.65625v-112c-.046875-39.746094-32.253906-71.953126-72-72-2.78125.015624-5.367188-1.414063-6.835938-3.777344-1.46875-2.359375-1.605468-5.3125-.363281-7.800782l18.253907-36.4218745h-70.109376l18.253907 36.4218745c1.242187 2.488282 1.105469 5.441407-.363281 7.800782-1.46875 2.363281-4.054688 3.792968-6.835938 3.777344-39.746094.046874-71.953125 32.253906-72 72v112c0 2.671874-1.335938 5.171874-3.558594 6.65625l-14.722656 9.816406c-3.589844 2.382812-5.742188 6.414062-5.71875 10.726562zm108-147.199218h4v-16h16v16h24v16h-44c-6.628906 0-12 5.371093-12 12 0 6.625 5.371094 12 12 12h24c15.464844 0 28 12.535156 28 28 0 15.460937-12.535156 28-28 28h-4v16h-16v-16h-24v-16h44c6.628906 0 12-5.375 12-12 0-6.628907-5.371094-12-12-12h-24c-15.464844 0-28-12.539063-28-28 0-15.464844 12.535156-28 28-28zm0 0"/><path d="m40 216.023438c0-4.417969 3.582031-8 8-8h48c4.417969 0 8 3.582031 8 8v56h40v-140.441407l-72-64.800781-72 64.800781v140.441407h40zm8-72c0-4.417969 3.582031-8 8-8h32c4.417969 0 8 3.582031 8 8v40c0 4.417968-3.582031 8-8 8h-32c-4.417969 0-8-3.582032-8-8zm0 0"/><path d="m447.433594 288.023438h-446.867188c4.015625 27.535156 27.609375 47.964843 55.433594 48h120l59.550781-.144532c36.878907-20.273437 81.574219-20.21875 118.402344.144532h38.046875c27.824219-.035157 51.417969-20.464844 55.433594-48zm0 0"/><path d="m243.199219 349.933594-2.046875 1.113281c-1.171875.640625-2.488282.972656-3.824219.976563h-61.328125c-8.835938 0-16 7.164062-16 16 0 8.835937 7.164062 16 16 16h64c4.417969 0 8 3.582031 8 8 0 4.417968-3.582031 8-8 8h-80c-1.152344 0-2.289062-.25-3.335938-.730469l-90.96875-41.671875c-5.617187-2.574219-12.160156-2.113282-17.359374 1.226562-5.199219 3.339844-8.34375 9.097656-8.335938 15.277344v1.738281c-.027344 6.878907 3.867188 13.175781 10.03125 16.230469l93.28125 46.632812c12.222656 6.101563 25.691406 9.285157 39.351562 9.296876h161.335938v-99.25c-31.679688-16.5-69.511719-16.066407-100.800781 1.160156zm0 0"/><path d="m360 352.023438v96h88v-96zm48 64c0 8.835937-7.164062 16-16 16s-16-7.164063-16-16c0-8.835938 7.164062-16 16-16s16 7.164062 16 16zm0 0"/><path d="m91.878906 352.023438 53.234375 24.382812c-2.257812-8.242188-1.050781-17.050781 3.335938-24.382812zm0 0"/></svg>