<svg height="512pt" viewBox="0 0 512.01981 512" width="512pt" xmlns="http://www.w3.org/2000/svg"><path d="m40.011719 24.011719h96v16h-96zm0 0"/><path d="m40.011719 56.011719h48v16h-48zm0 0"/><path d="m376.011719 24.011719h96v16h-96zm0 0"/><path d="m424.011719 56.011719h48v16h-48zm0 0"/><path d="m248.011719.0117188h16v16.0000002h-16zm0 0"/><path d="m182.472656 33.785156 11.3125-11.3125 11.3125 11.3125-11.3125 11.3125zm0 0"/><path d="m160.011719 88.011719h16v16h-16zm0 0"/><path d="m336.011719 88.011719h16v16h-16zm0 0"/><path d="m306.925781 33.785156 11.3125-11.3125 11.316407 11.3125-11.316407 11.316406zm0 0"/><path d="m493.867188 413.210938-45.855469-11.449219v-23.953125l8-6.09375v-51.703125c0-22.09375-17.910157-40-40-40-22.09375 0-40 17.90625-40 40v51.703125l8 6.09375v23.953125l-46.058594 11.496093c-.679687.191407-1.167969.527344-1.800781.753907-.757813-.308594-1.53125-.574219-2.320313-.800781l-45.820312-11.449219v-23.953125l8-6.09375v-67.703125c0-13.257813-10.746094-24-24-24h-23.019531c-23.0625-.027344-43.171876 15.675781-48.742188 38.054687l-2.488281 9.945313h18.25v43.703125l8 6.09375v23.953125l-45.824219 11.457031c-8.382812 2.105469-14.972656 8.574219-17.242188 16.910156-1.871093-.777344-3.832031-1.316406-5.839843-1.597656l-36.046875-4.6875c-3.996094-.445312-7.027344-3.8125-7.046875-7.832031h48v-64c0-39.765625-32.238281-72-72-72-39.765625 0-72 32.234375-72 72v64h48c-.035157 4.011719-3.0625 7.363281-7.050781 7.804687l-36.046876 4.691406c-11.945312 1.578126-20.8789058 11.75-20.9023432 23.796876v59.707031h16.0000002v-59.707031c-.003907-4.019532 2.980469-7.417969 6.964843-7.933594l25.035157-3.25v19.832031l32 16v35.058594h16v-35.058594l32-16v-19.832031l25.03125 3.25c3.984375.515625 6.96875 3.914062 6.96875 7.933594v59.707031h16v-16h16v16h16v-56h-16v24h-16v-43.503907c-.003907-3.675781 2.496093-6.878906 6.0625-7.769531l44.449219-11.128906c4.488281 7.816406 12.507812 12.945313 21.488281 13.738281v32.664063h16v-32.664063c8.976562-.792968 17-5.921875 21.484375-13.738281l44.449218 11.113281c3.566407.886719 6.066407 4.09375 6.066407 7.765625v43.523438h-16v-24h-16v56h16v-16h16v16h16v-75.503907c-.023438-3.359374-.753907-6.679687-2.136719-9.738281l36.648438-9.160156c4.484374 7.816406 12.507812 12.945313 21.488281 13.738281v32.664063h16v-32.664063c8.976562-.792968 17-5.921875 21.484375-13.738281l44.515625 11.113281c3.546875.890625 6.023437 4.09375 6 7.75v43.539063h-16v-24h-16v56h16v-16h16v16h16v-75.523438c.039062-11.011719-7.457031-20.628906-18.144531-23.277343zm-381.855469-33.585938c-.023438 9.320312-5.417969 17.792969-13.859375 21.753906l-10.140625 4.726563-10.144531-4.726563c-8.4375-3.960937-13.835938-12.433594-13.855469-21.753906v-24.285156l48 12zm-58.304688 20.386719h-21.695312v-48c0-30.929688 25.070312-56 56-56 30.925781 0 56 25.070312 56 56v48h-21.699219c3.703125-6.160157 5.671875-13.203125 5.699219-20.386719v-24.800781l-80-20v44.800781c.027343 7.183594 1.992187 14.226562 5.695312 20.386719zm58.304688 51.054687-24 12-24-12v-12.527344c8.21875-2.921874 14.199219-10.082031 15.613281-18.6875l8.386719 3.910157 8.390625-3.910157c1.40625 8.605469 7.386718 15.769532 15.609375 18.6875zm160-43.257812c-.097657 1.417968-1.347657 8.203125-16 8.203125-14.65625 0-15.914063-6.859375-16-8v-18.011719l2.628906 2.011719h26.738281l2.632813-2.011719zm8-87.796875v43.78125l-16 12.21875h-16l-16-12.21875v-35.78125h32v-16h-44c6.265625-9.96875 17.21875-16.011719 28.988281-16h23.011719c4.417969 0 8 3.578125 8 8zm136-24c10.132812.039062 19.148437 6.445312 22.527343 16h-6.527343c-5.910157-.007813-11.609375 2.175781-16 6.125-4.394531-3.949219-10.09375-6.132813-16-6.125h-6.53125c3.378906-9.554688 12.394531-15.960938 22.53125-16zm16 111.796875c-.097657 1.417968-1.347657 8.203125-16 8.203125-14.65625 0-15.914063-6.859375-16-8v-18.011719l2.628906 2.011719h26.738281l2.632813-2.011719zm8-44-16 12.203125h-16l-16-12.21875v-35.78125h8c4.417969 0 8 3.578125 8 8h16c0-4.421875 3.578125-8 8-8h8zm0 0"/><path d="m32.011719 472.011719h16v40h-16zm0 0"/><path d="m128.011719 472.011719h16v40h-16zm0 0"/><path d="m65.167969 133.019531c2.132812 11.867188 7.238281 23.003907 14.84375 32.367188v98.625h16v-84.066407c20.414062 13.589844 46.34375 15.84375 68.796875 5.984376 16.886718 30.808593 48.175781 51.019531 83.203125 53.746093v24.335938h16v-24.335938c35.023437-2.726562 66.3125-22.9375 83.199219-53.746093 19.472656 8.554687 41.734374 8.050781 60.800781-1.375v79.457031h16v-90.25c11.96875-10.632813 20.011719-24.984375 22.839843-40.742188 26.414063-7.097656 48.027344-26.074219 58.484376-51.347656 10.457031-25.277344 8.566406-53.976563-5.117188-77.660156l-13.855469 8c11.613281 20.09375 12.828125 44.558593 3.261719 65.710937-9.570312 21.148438-28.746094 36.386719-51.511719 40.925782l-5.800781 1.160156-.582031 5.890625c-1.910157 18.980469-13.363281 35.675781-30.382813 44.289062-17.023437 8.609375-37.257812 7.949219-53.683594-1.753906l-7.710937-4.535156-3.648437 8.167969c-14.117188 31.710937-45.582032 52.140624-80.292969 52.140624-34.714844 0-66.175781-20.429687-80.296875-52.140624l-3.648438-8.167969-7.710937 4.535156c-16.425781 9.703125-36.660157 10.363281-53.683594 1.753906-17.019531-8.613281-28.472656-25.308593-30.382813-44.289062l-.582031-5.890625-5.800781-1.160156c-22.765625-4.539063-41.941406-19.777344-51.511719-40.925782-9.566406-21.152344-8.351562-45.617187 3.261719-65.710937l-13.855469-8c-13.683593 23.683593-15.574219 52.382812-5.117187 77.660156 10.457031 25.273437 32.070312 44.25 58.484375 51.347656zm0 0"/><path d="m224.011719 151.371094v40.640625h64v-40.640625c25.085937-14.484375 37.316406-44.011719 29.816406-71.992188-7.496094-27.980468-32.851563-47.433594-61.816406-47.433594-28.96875 0-54.324219 19.453126-61.820313 47.433594-7.496094 27.980469 4.734375 57.507813 29.820313 71.992188zm48 24.640625h-32v-24h32zm-16-128c21.191406-.027344 39.882812 13.867187 45.972656 34.164062 6.089844 20.300781-1.867187 42.1875-19.574219 53.835938h-18.398437v-24h16v-16h-48v16h16v24h-18.402344c-17.703125-11.648438-25.664063-33.535157-19.574219-53.835938 6.089844-20.296875 24.78125-34.191406 45.976563-34.164062zm0 0"/></svg>