<?xml version="1.0" encoding="utf-8"?>
<!-- Generator: Adobe Illustrator 19.0.0, SVG Export Plug-In . SVG Version: 6.00 Build 0)  -->
<svg version="1.1" id="a47a0a21-9b01-4fbd-9b4d-87f66ed38e86"
	 xmlns="http://www.w3.org/2000/svg" xmlns:xlink="http://www.w3.org/1999/xlink" x="0px" y="0px" viewBox="263 131.8 1137 531.2"
	 style="enable-background:new 263 131.8 1137 531.2;" xml:space="preserve">
<style type="text/css">
	.st0{fill:#3F3D56;}
	.st1{fill:#38D39F;}
	.st2{fill:#F2F2F2;}
	.st3{fill:#CCCCCC;}
	.st4{opacity:0.1;enable-background:new    ;}
	.st5{fill:#A0616A;}
	.st6{fill:#2F2E41;}
	.st7{fill:#D0CDE1;}
	.st8{fill:none;stroke:#37474F;stroke-miterlimit:10;}
	.st9{fill:#F5F5F5;}
	.st10{fill:#E6E6E6;}
	.st11{fill:#FFFFFF;}
	.st12{fill:#FF9800;}
</style>
<title>buy_house</title>
<rect x="549.1" y="309.3" class="st0" width="8.9" height="351.7"/>
<path class="st1" d="M640.2,354.1c0.6,123-85.9,223-85.9,223s-87.4-99.3-88-222.2s85.9-223,85.9-223S639.6,231.1,640.2,354.1z"/>
<rect x="488.5" y="515.3" class="st2" width="689" height="146"/>
<polygon class="st0" points="466.5,531.3 541.5,374.3 1140.5,374.3 1196.5,531.3 "/>
<rect x="653.5" y="384.3" class="st2" width="278" height="92"/>
<polygon class="st0" points="671.5,309.3 627.5,401.3 957.5,401.3 931.5,309.3 "/>
<rect x="678" y="544.3" class="st3" width="219.5" height="117"/>
<rect x="515.5" y="548.3" class="st3" width="117" height="113"/>
<rect x="935.5" y="555.3" class="st0" width="60.5" height="106"/>
<rect x="263" y="660.8" class="st0" width="1137" height="2"/>
<rect x="442.9" y="428.9" class="st0" width="5.9" height="232.1"/>
<path class="st1" d="M503,458.5c0.4,81.1-56.7,147.2-56.7,147.2s-57.7-65.5-58.1-146.7c-0.4-81.1,56.7-147.2,56.7-147.2
	S502.6,377.3,503,458.5z"/>
<path class="st4" d="M503,458.5c0.4,81.1-56.7,147.2-56.7,147.2s-57.7-65.5-58.1-146.7c-0.4-81.1,56.7-147.2,56.7-147.2
	S502.6,377.3,503,458.5z"/>
<rect x="366.5" y="428.9" class="st0" width="5.9" height="232.1"/>
<path class="st1" d="M426.6,458.5c0.4,81.1-56.7,147.2-56.7,147.2s-57.7-65.5-58.1-146.7s56.7-147.2,56.7-147.2
	S426.3,377.3,426.6,458.5z"/>
<rect x="1061.5" y="561.3" class="st0" width="29.5" height="27.5"/>
<rect x="1101" y="561.3" class="st0" width="29.5" height="27.5"/>
<rect x="1061.5" y="598.8" class="st0" width="29.5" height="28.5"/>
<rect x="1101" y="598.8" class="st0" width="29.5" height="28.5"/>
<rect x="679" y="409.5" class="st0" width="23.1" height="21.5"/>
<rect x="709.9" y="409.5" class="st0" width="23.1" height="21.5"/>
<rect x="679" y="438.9" class="st0" width="23.1" height="22.3"/>
<rect x="709.9" y="438.9" class="st0" width="23.1" height="22.3"/>
<rect x="852" y="409.5" class="st0" width="23.1" height="21.5"/>
<rect x="882.9" y="409.5" class="st0" width="23.1" height="21.5"/>
<rect x="852" y="438.9" class="st0" width="23.1" height="22.3"/>
<rect x="882.9" y="438.9" class="st0" width="23.1" height="22.3"/>
<rect x="766" y="409.5" class="st0" width="23.1" height="21.5"/>
<rect x="796.9" y="409.5" class="st0" width="23.1" height="21.5"/>
<rect x="766" y="438.9" class="st0" width="23.1" height="22.3"/>
<rect x="796.9" y="438.9" class="st0" width="23.1" height="22.3"/>
<rect x="949" y="566.1" class="st2" width="14.5" height="13.6"/>
<rect x="968.5" y="566.1" class="st2" width="14.5" height="13.6"/>
<rect x="949" y="584.5" class="st2" width="14.5" height="14"/>
<rect x="968.5" y="584.5" class="st2" width="14.5" height="14"/>
<circle class="st2" cx="988" cy="615.8" r="4"/>
<rect x="678" y="556.8" class="st2" width="220" height="2"/>
<rect x="678" y="565.8" class="st2" width="220" height="2"/>
<rect x="678" y="574.8" class="st2" width="220" height="2"/>
<rect x="678" y="583.8" class="st2" width="220" height="2"/>
<rect x="678" y="592.8" class="st2" width="220" height="2"/>
<rect x="678" y="601.8" class="st2" width="220" height="2"/>
<rect x="678" y="610.8" class="st2" width="220" height="2"/>
<rect x="678" y="619.8" class="st2" width="220" height="2"/>
<rect x="678" y="628.8" class="st2" width="220" height="2"/>
<rect x="678" y="637.8" class="st2" width="220" height="2"/>
<rect x="678" y="646.8" class="st2" width="220" height="2"/>
<rect x="515.5" y="556.8" class="st2" width="117" height="2"/>
<rect x="515.5" y="565.8" class="st2" width="117" height="2"/>
<rect x="515.5" y="574.8" class="st2" width="117" height="2"/>
<rect x="515.5" y="583.8" class="st2" width="117" height="2"/>
<rect x="515.5" y="592.8" class="st2" width="117" height="2"/>
<rect x="515.5" y="601.8" class="st2" width="117" height="2"/>
<rect x="515.5" y="610.8" class="st2" width="117" height="2"/>
<rect x="515.5" y="619.8" class="st2" width="117" height="2"/>
<rect x="515.5" y="628.8" class="st2" width="117" height="2"/>
<rect x="515.5" y="637.8" class="st2" width="117" height="2"/>
<rect x="515.5" y="646.8" class="st2" width="117" height="2"/>
<g>
	<polygon class="st5" points="517.9,633.2 519.6,646.1 507.5,647.2 509.2,631.5 	"/>
	<path class="st5" d="M460.5,457.3c0,0,1.2,15.7,1.2,16.3s-8.1,40.8-8.1,40.8s-11.6,22.1,0,21.6c11.6-0.6,8.1-21,8.1-21l12.2-33.8
		l-5.2-23.9H460.5z"/>
	<polygon class="st5" points="479.6,633.2 477.9,646.1 490.1,647.2 488.3,631.5 	"/>
	<path class="st6" d="M466.3,513.2l-2.9,4.1c0,0-1.7,17.5,0,23.3c1.7,5.8,5.2,32.6,5.2,34.4s0.6,2.9,0,3.5c-0.6,0.6-2.3,0.6-1.2,1.7
		c1.2,1.2,1.2,4.7,1.2,4.7v2.9l7.5,43.1c0,0-4.6,5.2-1.2,5.2s16.2,0,15.7-5.8l-1.2-0.6c0,0-1.7-38.5-1.2-40.2c0.6-1.7,0-5.2,0-5.2
		s-1.2-1.7,0-2.3c1.2-0.6,1.2-5.2,1.2-5.2l5.2-35.5c0,0,4.6,23.9,7.5,26.2s2.3,8.2,2.3,8.2l2.3,51.3c0,0-2.3,5.8,0,7
		c2.3,1.2,12.2,5.2,12.8-0.6s3.5-56.5,3.5-58.8s-0.6-3.5,0-5.2c0.6-1.7-0.6-1.7,0-1.7s-1.2-1.7-1.2-2.9v-28.5c0,0,0.6-5.8,1.2-7
		c0.6-1.2-0.6-2.3,0-4.1c0.6-1.7-1.2-7.6-1.2-7.6l-26.1-7L466.3,513.2z"/>
	<path class="st6" d="M486.6,643.7c0,0,2.9-2.9-1.2-2.9c-2.6,0.1-5.2,0.6-7.5,1.7L475,653c0,0-11.9,9.6,1.5,8.4
		c13.3-1.2,11.3-0.3,11.3-0.3s4.1-1.2,4.6-2.3c0.6-1.2-1.2-18.1-1.2-18.1S489.5,645.5,486.6,643.7z"/>
	<path class="st6" d="M511.5,643.7c0,0-2.9-2.9,1.2-2.9c2.6,0.1,5.2,0.6,7.5,1.7l2.9,10.5c0,0,11.9,9.6-1.5,8.4
		c-13.3-1.2-13.1-0.3-13.1-0.3s-4.1-1.2-4.6-2.3s2.9-18.1,2.9-18.1S508.6,645.5,511.5,643.7z"/>
	<ellipse class="st5" cx="473.8" cy="396.1" rx="15.1" ry="15.1"/>
	<path class="st5" d="M468.6,407.2c0,0,2.3,11.7,2.3,13.4c0,1.7,9.9,7,9.9,7l11-14c0,0-7-9.9-7-12.2L468.6,407.2z"/>
	<path class="st7" d="M477.3,422.3c0,0-5.1-1.4-6.6-3.6c0,0-16,15.8-16,18.7l12.8,22.7c0,0,0,8.2,1.2,8.7c1.2,0.6,0,0,0,2.3
		s-3.5,17.5-2.3,19.8c1.2,2.3,2.3,0.6,1.2,4.1c-1.2,3.5-4.1,22.1-4.1,22.1s10.4-3.5,25.5,2.3s33.1-2.3,33.1-2.3s-4.6-10.5-3.5-14
		c1.2-3.5-2.9-9.9-2.9-9.9l-2.9-53.6c0,0,4.1-23.9,1.2-25.1l-5.8-2.3l-18.6-2.3C489.5,410.1,484.8,421.8,477.3,422.3z"/>
	<path class="st7" d="M460.5,433.4l-5.8,4.1c0,0-2.9,8.7,0,12.8c2.9,4.1,4.1,9.9,4.1,9.9l11.6-1.2L460.5,433.4z"/>
	<path class="st5" d="M503.4,438.6c0,0-3.4,8.7-2.7,17.3c0.1,1.5,0.6,3,1.5,4.3l0,0l-41.2,19.6c0,0-18.6,1.9-14,10.1
		c4.6,8.2,21.5-4.1,21.5-4.1s44.1-6.4,47.6-12.8c3.5-6.4,5.8-33.2,5.8-33.2L503.4,438.6z"/>
	<path class="st6" d="M462.3,380.1l-2.6-1.1c0,0,5.5-6,13.1-5.5l-2.1-2.4c0,0,5.2-2.1,10,3.4c2.5,2.9,5.4,6.3,7.2,10.2h2.8l-1.2,2.6
		l4.1,2.6l-4.2-0.5c0.4,2.2,0.3,4.5-0.4,6.7l0.1,2c0,0-4.9-7.6-4.9-8.6v2.6c0,0-2.6-2.4-2.6-3.9l-1.4,1.8l-0.7-2.9l-8.8,2.9l1.4-2.4
		l-5.5,0.8l2.1-2.9c0,0-6.2,3.4-6.4,6.3c-0.2,2.9-3.3,6.6-3.3,6.6l-1.4-2.6C457.5,395.9,455.4,384.1,462.3,380.1z"/>
	<path class="st7" d="M505.1,414.8h8.7c0,0,6.4,1.2,8.1,12.8c1.7,11.7,3.5,14.6,1.7,14.6c-1.7,0-22.6-0.6-22.6-1.2
		C501.1,440.4,505.1,414.8,505.1,414.8z"/>
</g>
<polyline class="st8" points="313.7,497.6 359.6,547 411.5,497.6 "/>
<g>
	<rect x="287.4" y="474.6" class="st9" width="26" height="186.4"/>
	<rect x="279.5" y="482.8" class="st9" width="179.9" height="26.9"/>
	<ellipse class="st10" cx="300.6" cy="495.9" rx="4.2" ry="4.4"/>
	<ellipse class="st10" cx="446.1" cy="495.9" rx="4.2" ry="4.4"/>
	<rect x="322.1" y="543.1" width="114.7" height="78.8"/>
	<rect x="335.4" y="555.6" class="st11" width="80.9" height="7.5"/>
	<rect x="350.2" y="570.3" class="st11" width="57.3" height="7.5"/>
	<rect x="342.9" y="585" class="st11" width="69.4" height="7.5"/>
	<rect x="336.3" y="599.7" class="st11" width="80.9" height="7.5"/>
</g>
<circle class="st12" cx="1209" cy="204.8" r="44"/>
</svg>
