<svg height="464pt" viewBox="0 0 464.008 464" width="464pt" xmlns="http://www.w3.org/2000/svg"><path d="m440 128.003906c-10.414062 0-19.214844 6.710938-22.527344 16h-50.953125c-3.3125-9.289062-12.113281-16-22.527343-16-13.230469 0-24 10.769532-24 24 0 6.167969 2.40625 11.742188 6.238281 16l-50.574219 104.367188c-1.191406-.183594-2.398438-.367188-3.65625-.367188-3.039062 0-5.929688.625-8.617188 1.664063l-18.664062-21.777344c2.035156-3.519531 3.28125-7.542969 3.28125-11.886719 0-13.230468-10.769531-24-24-24s-24 10.769532-24 24c0 3.695313.902344 7.152344 2.40625 10.28125l-30.519531 30.519532-10.292969-10.296876-17.144531 11.433594c-4.441407-2.304687-9.074219-4.226562-13.847657-5.746094l-4.050781-20.191406h-45.109375l-4.050781 20.191406c-4.78125 1.511719-9.414063 3.441407-13.847656 5.746094l-17.144531-11.433594-31.894532 31.894532 11.433594 17.144531c-2.304688 4.441406-4.226562 9.074219-5.746094 13.847656l-20.191406 4.058594v45.109375l20.191406 4.050781c1.511719 4.78125 3.441406 9.414063 5.746094 13.847657l-11.433594 17.144531 31.894532 31.894531 17.144531-11.433594c4.441406 2.304688 9.074219 4.226563 13.847656 5.746094l4.058594 20.191406h45.109375l4.050781-20.191406c4.78125-1.511719 9.414063-3.441406 13.847656-5.746094l17.144531 11.433594 31.894532-31.894531-11.433594-17.144531c2.304688-4.441407 4.226562-9.074219 5.746094-13.847657l20.191406-4.058593v-45.109376l-20.191406-4.050781c-1.511719-4.78125-3.441406-9.414062-5.746094-13.847656l11.433594-17.144531-10.296875-10.285156 30.519531-30.519532c3.128906 1.503906 6.585938 2.40625 10.28125 2.40625 3.039062 0 5.929688-.625 8.617188-1.664062l18.664062 21.777344c-2.035156 3.519531-3.28125 7.542968-3.28125 11.886718 0 13.230469 10.769531 24 24 24s24-10.769531 24-24c0-6.167968-2.40625-11.742187-6.238281-16l50.574219-104.367187c1.199218.183593 2.40625.367187 3.664062.367187 10.414062 0 19.214844-6.710937 22.527344-16h50.953125c3.3125 9.289063 12.113281 16 22.527343 16 13.230469 0 24-10.769531 24-24 0-13.230468-10.777343-24-24.007812-24zm-336 288c-30.871094 0-56-25.128906-56-56 0-11.664062 3.59375-22.871094 10.390625-32.425781l13.035156 9.28125c-4.859375 6.824219-7.425781 14.824219-7.425781 23.144531 0 22.054688 17.945312 40 40 40 8.320312 0 16.320312-2.566406 23.144531-7.425781l9.28125 13.035156c-9.554687 6.796875-20.761719 10.390625-32.425781 10.390625zm-24-56c0-13.230468 10.769531-24 24-24s24 10.769532 24 24c0 13.230469-10.769531 24-24 24s-24-10.769531-24-24zm69.609375 32.425782-13.035156-9.28125c4.859375-6.824219 7.425781-14.824219 7.425781-23.144532 0-22.054687-17.945312-40-40-40-8.320312 0-16.320312 2.566406-23.144531 7.425782l-9.28125-13.035157c9.554687-6.796875 20.761719-10.390625 32.425781-10.390625 30.871094 0 56 25.128906 56 56 0 11.664063-3.59375 22.871094-10.390625 32.425782zm66.390625-152.425782c0-4.414062 3.585938-8 8-8s8 3.585938 8 8c0 4.417969-3.585938 8-8 8s-8-3.582031-8-8zm56 64c-4.414062 0-8-3.582031-8-8 0-4.414062 3.585938-8 8-8s8 3.585938 8 8c0 4.417969-3.585938 8-8 8zm72-144c-4.414062 0-8-3.582031-8-8 0-4.414062 3.585938-8 8-8s8 3.585938 8 8c0 4.417969-3.585938 8-8 8zm96 0c-4.414062 0-8-3.582031-8-8 0-4.414062 3.585938-8 8-8s8 3.585938 8 8c0 4.417969-3.585938 8-8 8zm0 0"/><path d="m448 192.003906h-32v256h-32v-216h-32v216h-32v-96h-32v96h-32v-128h-32v128h-16v16h256v-16h-16zm0 0"/><path d="m176 448.003906h16v16h-16zm0 0"/><path d="m112 360.003906c0 4.417969-3.582031 8-8 8s-8-3.582031-8-8c0-4.417968 3.582031-8 8-8s8 3.582032 8 8zm0 0"/><path d="m336 .00390625v15.99999975h8c8.824219 0 16 7.175782 16 16v48h40v24l24-24h40v-79.99999975zm72 47.99999975h-16v-16h16zm32 0h-16v-16h16zm0 0"/><path d="m256 112.003906v24l24-24h64v-80h-128.015625l.015625 80zm-24-64h96v16h-96zm0 32h96v16h-96zm0 0"/><path d="m80.574219 22.773438 16.914062 11.277343c5.847657 3.890625 12.65625 5.953125 19.671875 5.953125 13.40625 0 25.480469-7.398437 31.558594-19.328125l-2-.671875c-9.472656-3.152344-18.480469-7.550781-26.773438-13.089844-6.785156-4.519531-14.679687-6.91015575-22.824218-6.91015575-19.289063 0-35.519532 13.34374975-39.953125 31.28906275 6.097656-.953125 12.054687-2.839844 17.566406-5.601563zm0 0"/><path d="m112.144531 176.859375 7.015625 63.144531h24.839844v-64h16v64h32v-64.183594c0-10.6875-6.871094-19.921874-17.105469-22.992187l-49.765625-14.929687zm0 0"/><path d="m95.160156 184.003906-6.222656 56h14.125l-6.222656-56zm0 0"/><path d="m32 176.003906h16v64h24.839844l7.015625-63.144531-12.984375-38.960937-49.765625 14.929687c-10.234375 3.0625-17.105469 12.304687-17.105469 22.992187v64.183594h32zm0 0"/><path d="m112 125.796875v-8.191406c-5.144531 1.550781-10.59375 2.398437-16.230469 2.398437h-1.203125c-4.992187 0-9.871094-.710937-14.558594-2.007812v7.800781c1.976563 3.0625 7.488282 10.207031 15.992188 10.207031s14.015625-7.144531 16-10.207031zm0 0"/><path d="m94.558594 104.003906h1.203125c22.191406 0 40.238281-17.945312 40.238281-40v-11.527344c-14.96875 5.839844-33.40625 4.199219-47.382812-5.113281l-9.242188-6.167969c-7.398438 3.359376-15.34375 5.511719-23.414062 6.382813l-.007813 17.800781c-.007813 10.3125 4.007813 20.015625 11.292969 27.3125 7.296875 7.296875 16.992187 11.3125 27.3125 11.3125zm0 0"/><path d="m96 152.003906c-2.847656 0-5.472656-.390625-7.910156-1.039062l5.679687 17.039062h4.46875l5.683594-17.039062c-2.449219.648437-5.074219 1.039062-7.921875 1.039062zm0 0"/></svg>