<?xml version="1.0" encoding="utf-8"?>
<!-- Generator: Adobe Illustrator 19.0.0, SVG Export Plug-In . SVG Version: 6.00 Build 0)  -->
<svg version="1.1" id="Capa_1" xmlns="http://www.w3.org/2000/svg" xmlns:xlink="http://www.w3.org/1999/xlink" x="0px" y="0px"
	 viewBox="-57 149 496 496" style="enable-background:new -57 149 496 496;" xml:space="preserve">
<g>
	<g>
		<g>
			<rect x="47" y="405" width="16" height="144"/>
			<path d="M63,213h256v80h16V189c0-22.1-17.9-40-40-40H87c-22.1,0-40,17.9-40,40v40h16V213z M63,189c0-13.2,10.8-24,24-24h208
				c13.2,0,24,10.8,24,24v8H63V189z"/>
			<rect x="319" y="469" width="16" height="80"/>
			<path d="M47,605c0,22.1,17.9,40,40,40h208c22.1,0,40-17.9,40-40v-40H47V605z M63,581h256v24c0,13.2-10.8,24-24,24H87
				c-13.2,0-24-10.8-24-24V581z"/>
			<rect x="151" y="597" width="80" height="16"/>
			<path d="M87,245H-57v144H87V245z M71,373H-41V261H71V373z"/>
			<rect x="-25" y="277" width="80" height="16"/>
			<rect x="-25" y="309" width="80" height="16"/>
			<rect x="7" y="341" width="16" height="16"/>
			<rect x="39" y="341" width="16" height="16"/>
			<rect x="-25" y="341" width="16" height="16"/>
			<path d="M295,309v144h144V309H295z M423,437H311V325h112V437z"/>
			<rect x="327" y="341" width="80" height="16"/>
			<rect x="327" y="373" width="80" height="16"/>
			<rect x="359" y="405" width="16" height="16"/>
			<rect x="391" y="405" width="16" height="16"/>
			<rect x="327" y="405" width="16" height="16"/>
			<path d="M271,317c0-20.7-15.7-37.7-35.8-39.8l-4.2-5.6C218.5,255,198.5,245,177.7,245c-36.8,0-66.7,29.9-66.7,66.7v138.6
				c-9.7,4.7-17.2,13.1-20.6,23.4L75.9,517h230.2l-14.5-43.4c-3.4-10.3-11-18.7-20.6-23.4L271,317L271,317z M127,311.7
				c0-27.9,22.7-50.7,50.7-50.7c15.9,0,31,7.6,40.5,20.3L227,293h4c13.2,0,24,10.8,24,24v17.5c-2.4-0.9-5-1.4-7.7-1.4v0H247h-8
				c-18.9,0-37.7-6.2-52.8-17.6c-5.5-4.1-12.3-6.4-19.2-6.4c-14.9,0-27.3,10.2-30.9,24H135c-2.8,0-5.5,0.6-8,1.5V311.7z M255,357
				c0,4.4-3.6,8-8,8v-16C251.4,349,255,352.6,255,357z M231,348.7v27.1c0,6.3-2.6,12.5-7,17L206,410.7c-1.5,1.5-3.6,2.3-5.7,2.3
				h-18.8c-2.1,0-4.2-0.9-5.7-2.3L158,392.7c-4.5-4.5-7-10.6-7-17V349v-8c0-8.8,7.2-16,16-16c3.5,0,6.8,1.1,9.6,3.2
				C192.3,340,211.4,347.1,231,348.7z M135,349v16c-4.4,0-8-3.6-8-8S130.6,349,135,349z M127,379.5c2.5,0.9,5.2,1.5,8,1.5h0.5
				c1.1,8.7,4.9,16.7,11.2,23l17.9,17.9c4.5,4.5,10.6,7,17,7h18.8c6.4,0,12.4-2.5,17-7l17.9-17.9c6.3-6.3,10.1-14.4,11.2-23h0.5
				c2.8,0,5.5-0.6,8-1.5v65l-16-5.3V429h-16v14.1l-9,18L203.3,445h-24.5l-11.3,16.3l-8.5-17V429h-16v10.2l-16,5.3V379.5z
				 M276.5,478.7l7.4,22.3H98.1l7.4-22.3c2.4-7.1,8.1-12.8,15.2-15.2l25.7-8.6l18.8,37.7l21.9-31.7h7.5l21.3,31.9l19.1-38.1
				l26.2,8.7C268.4,465.9,274.1,471.6,276.5,478.7z"/>
		</g>
	</g>
</g>
</svg>
