<?xml version="1.0" encoding="utf-8"?>
<!-- Generator: Adobe Illustrator 19.0.0, SVG Export Plug-In . SVG Version: 6.00 Build 0)  -->
<svg version="1.1" id="b1d80de4-06cb-4b2d-9c4c-b14d42818646"
	 xmlns="http://www.w3.org/2000/svg" xmlns:xlink="http://www.w3.org/1999/xlink" x="0px" y="0px" viewBox="199 21.6 1009.5 750.4"
	 style="enable-background:new 199 21.6 1009.5 750.4;" xml:space="preserve">
<style type="text/css">
	.st0{fill:url(#SVGID_1_);}
	.st1{fill:#FBBEBE;}
	.st2{opacity:0.1;enable-background:new    ;}
	.st3{fill:#4285F4;}
	.st4{fill:#3F3D56;}
</style>
<title>in progress</title>
<linearGradient id="SVGID_1_" gradientUnits="userSpaceOnUse" x1="408.5789" y1="-20.2372" x2="408.5789" y2="580.3547" gradientTransform="matrix(-0.9996 -2.956750e-002 2.956750e-002 -0.9996 1256.7965 740.4124)">
	<stop  offset="0" style="stop-color:#808080;stop-opacity:0.25"/>
	<stop  offset="0.54" style="stop-color:#808080;stop-opacity:0.12"/>
	<stop  offset="1" style="stop-color:#808080;stop-opacity:0.1"/>
</linearGradient>
<path class="st0" d="M741.8,695.1c2.4-0.3,4.8-0.7,7.1-1.2c-0.4,2.3-1.1,4.6-2.2,6.7c-2.4,4.3-7,6.9-11.3,9.4
	c-1.2-1.1-2.9-1.3-4.3-0.4c-5.1,2.8-9.3,7-14.6,9.5c-1.9,0.9-3.9,1.5-5.7,2.5c-4.5,2.4-8.1,6.4-10.9,10.7c-1.5,2.3-2.9,5.4-1.5,7.7
	c0.5,0.8,1.2,1.5,2.1,2c2.1,1.6,4.7,2.4,7.3,2.4c1.6-0.1,3.1-0.6,4.7-0.9c2.1-0.3,4.2-0.1,6.3-0.2c3-0.3,6-1,8.9-2l10.3-3.2
	c3-0.9,5.9-2,8.7-3.3c1.7-0.9,3.3-1.9,5-2.6c1.9-0.8,3.9-1.4,5.9-1.9l6-1.6c0.9-0.3,1.8-0.4,2.7-0.3c0.8,0.2,1.5,0.7,2.3,1
	c1.3,0.3,2.6,0.2,3.8-0.3l6.9-1.8c1.5-0.3,2.9-0.8,4.1-1.6c3.2-2.1,3.9-6.6,4-10.4c0.2-5.9-0.3-11.8-1.5-17.6
	c-0.9,0.3-1.7,0.9-2.3,1.6c-0.7-1-1.4-2-2.2-2.9c-3-3.8-5.3-8.2-6.5-12.8c2.6-1.8,4.7-4,6.4-6.7c-3.2-13.9-6.5-28.1-13.5-40.5
	c-2.3-4-4.9-7.8-7.3-11.9c-6.8-11.6-7.9-26-15.8-36.9c-1.5-2.3-1.5-5.2,0.2-7.4c1-1.3,2.5-2.4,2.3-3.9c-0.2-1.1-1.3-2.2-0.8-3.2
	c0.2-0.5,0.7-0.7,1.2-1.1c1.4-1.2,1.3-3.5,1.5-5.4c0.4-4.8,3.4-9,6.3-12.8c0.6-0.9,1.4-1.7,2.3-2.3c0.8-0.4,1.6-0.6,2.4-1.1
	c2.7-1.6,2.6-5.4,3.9-8.2c1.7-3.7,5.9-5.5,8.7-8.5c3.6-3.8,4.6-9.1,8.4-12.4c0.4-0.4,0.8-0.7,1.2-1c-2,5.7-2.4,11.7-2.7,17.7
	c-0.9,20.5,3.5,41.9,0.5,62.2c-2.4,16.1,7,32.5,20.8,41c5.3,3.3,11.1,5.5,16.9,7.8c8.7,3.4,17.3,6.9,25.8,10.8
	c6,2.7,11.9,5.6,17.7,8.7c7.2,3.8,14.2,7.9,20.9,12.5c8.3,5.7,16.6,11.4,22.3,19.7c3.7-0.1,7.2-1.3,10.2-3.4c2.2,1.9,5,3.4,7.1,5.4
	c3.1,3,4.5,7.2,5.4,11.5l-0.9,0l0.1,6.1c0.2,0.9-0.2,1.8-1.1,2.2l-4.7,3.1c-3.5,2.2-7.3,5-7.6,9.1c-0.1,1.2,0.2,2.4,0.9,3.4
	c1,1.2,2.6,1.6,4.1,2c8.1,1.9,16.4,3.9,24.6,3c3.9-0.4,8-1.6,10.7-4.5c2.4-2.7,3.3-6.4,4-10c1.2-6.1,2.2-12.2,3.1-18.4
	c0.6-4.1,1.1-8.4,2.9-12.2c0.1-0.3,0.4-0.6,0.7-0.8c0.4-0.1,0.8,0,1.1-0.1c0.4-0.2,0.7-0.7,0.8-1.1c1.7-5.9,2.6-12.1,2.7-18.3
	c0.1-1.6-0.1-3.2-0.6-4.7c-1-2.6-3.7-4.4-6.3-5.2c-2.7-0.8-5.6-0.9-8.4-1.2c-2.4-0.3-4.7-0.8-7-1.5c-0.9-0.4-1.9-0.5-2.9-0.5
	c-1,0.1-1.8,0.9-1.8,1.9c0,0.4,0.1,0.7,0.3,1c-0.8-0.2-1.6-0.4-2.3-0.5c-1.9-0.4-4.6-1.3-7.4-2.1c0.1-0.4,0.1-1,0.1-1.4
	c0-1.1-0.6-2.1-1.5-2.7l-39.5-22.6l-7.4-4.2c-16.2-9.3-32.9-17.9-49.1-27.2c-1.1,0.3-2-1-2.3-2.1c-0.3-1.1-0.5-2.5-1.5-3
	c-0.5-0.3-1.2-0.3-1.6-0.7c-0.3-0.4-0.3-0.9-0.2-1.4c0.8-8,6.7-15.2,5.8-23.1c-0.4-3.4-2-6.8-1.2-10.1c0.6-2.3,2.3-4.1,3.2-6.3
	c2.1-4.8,0.3-10.8,2.6-15.5c1.5-3.1,2.6-6.4,3.2-9.8c1.2-6.8,3.5-13.3,6.7-19.5c1.5-3.1,3.5-5.9,5.9-8.4c1.2-1.3,2.6-2.4,3.8-3.7
	c3.6-4.1,5.1-9.6,6.2-14.9c2.1-9.7,3.6-19.7,1.7-29.4c-0.7-3.3-1.7-6.6-1.6-10c0.2-4,1.9-8.6,0-11.9c2.1-1.6,3.5-3.8,4-6.4
	c0.1-0.9,0.3-1.8,0.6-2.7c0.7-0.9,1.6-1.7,2.6-2.2c3.3-2.3,4.9-6.3,4.2-10.3c2.1,1,4.3-1,5.3-3.1c1-2.1,1.9-4.6,4-5.4
	c1.4-0.6,3.1-0.2,4.6-0.5c2.4-0.6,4-2.9,5.7-4.6c3.6-3.7,8.5-5.5,13.1-7.6c13.6-6.4,24.9-17,36-27.3c5.6-5.2,11.2-10.4,15.6-16.6
	c1.3-1.7,2.4-3.5,3.5-5.4l0.3-0.1l0.1,0.3c0.1,0.7,0.3,1.4,0.5,2c0.4,1.6,0.9,3.2,1.5,4.7c1.5,4.6,3.1,9.5,6.4,13
	c1,1.1,2.1,2,3.4,2.8c2.7,1.6,5.7,2.5,8.8,2.9c1.2,0.2,2.4,0.3,3.6,0.4c1.2,0.1,2.4,0.2,3.6,0.2l24.6,1.4
	c-8.1-12.4-8.3-28.4-7.3-43.2c2.5-38.2,11.1-76.6,5.3-114.4c-0.7-4.5-1.7-9.2-4.3-12.9c-3.5-4.9-9.4-7.4-15.2-8.9s-11.8-2.4-17.2-5
	c-4.6-2.2-8.6-5.7-13.5-6.9c-3.6-0.9-7.3-0.6-10.9-0.1c-4.5,0.5-8.9,1.2-13.3,1.9l-1.1,0.2l-0.1,0l-0.7,0.1l-0.2,0l-0.7,0.1
	l-0.2,0.1l-0.6,0.2l-0.3,0.1l-0.6,0.2l-0.3,0.1l-0.5,0.2l-0.3,0.1l-0.5,0.2l-0.4,0.1l-0.4,0.2l-0.4,0.2l-0.4,0.2l-0.4,0.2
	c-0.1,0.1-0.3,0.1-0.4,0.2l-0.4,0.2l-0.4,0.2l-0.4,0.3l-0.3,0.2l-0.4,0.3l-0.3,0.2c-0.1,0.1-0.2,0.2-0.4,0.3l-0.3,0.3
	c-0.1,0.1-0.2,0.3-0.4,0.4c-0.1,0.1,0,0-0.2,0.2c-0.2,0.2-0.3,0.4-0.4,0.6c0,0-0.1,0.1-0.1,0.1c-0.4,0.6-0.7,1.2-0.9,1.8
	c-0.1,0.4-0.2,0.7-0.3,1c-0.2,0.7-0.3,1.3-0.4,2c-0.1,0.3-0.1,0.7-0.1,1c0,0.6,0,1.3-0.1,2c0,1.1,0.1,2.3,0.3,3.4
	c-4.8,2.7-9,6.4-12.3,10.9c-11.9,16.6-8,39.7,8.6,51.6c0.1,0.7,0.1,1.3,0.1,1.8c0,0.1,0,0.3,0,0.4c-0.1,2.1-0.4,4.3-0.8,6.4
	c-6-1.3-12.1-2.1-18.3-2.2c-3.7,0-7.3,0.1-11,0.3c-3.8-4.9-7.3-9.9-10.6-15.2c-2.6-4-5.2-8-7.8-12.1c-2.7-4-5.1-8.1-7.2-12.4
	c-1.9-3.9-3.3-8.1-5.4-11.9c-4.3-7.8-11.6-14.6-12.2-23.5l-2.2,0.4c-1.1-2-2.5-4-3-5.1c-2.7-6.4-4.8-13.1-6.2-20
	c-0.6-3.6-1.1-7.3-2.9-10.3c-1.3-1.9-2.8-3.7-4.6-5.1c-3-2.7-6.2-5.3-9.9-6.7c-3.3-1.3-7.1-1.2-10.4,0.3c-0.5-0.2-1-0.5-1.5-0.6
	c-3.8-1.4-8.3-1.3-11.5,1c-3.2,2.3-4.7,6.5-5.3,10.5c-0.9,5.5-0.4,11.3,2.2,16.2c3,5.5,8.2,9.3,12.6,13.8c3,3.1,5.7,6.6,7.8,10.4
	c0.2,8.2,0.2,16.5-1.3,24.6c-0.7,3.5-1.7,6.9-2.1,10.4c-1.5,12.7,4.7,25.6,2,38.1c-0.9,3.8,0.7,7.8,4,9.9c3.3,1.9,7.3,2.2,11,3.3
	c7.3,2.1,13.5,7,20.8,8.9c3.3,0.9,6.9,1.2,10.3,2.2c0.2,0,0.4,0.1,0.5,0.2c-2.7,2.9-4.7,6.4-5.8,10.2c-1.7,6.3-0.5,13.2-2.2,19.5
	c-1.4,5.3-4.7,9.7-7.9,14.1l-18.6,25.2c-4.2,5.9-8.7,11.6-13.6,16.9c-8.4,8.7-22.8,15.3-27.3,26c-0.1-0.3-0.2-0.5-0.3-0.8
	c-6,4.2-8.4,12.2-13.3,17.6c-2.4,2.7-5.2,4.8-7.8,7.2c-3.2,3.2-6.1,6.6-8.7,10.2c-7.3,9.5-14.6,19-19.9,29.7
	c-2.8,5.6-5,11.4-7.2,17.2c-8.8,22.8-22.8,44.2-29,67.9c-1.5,5.8-5.2,10.9-5.9,16.8c-0.8,6.3,2,12.5,4.8,18.2
	c4.3,8.7,9.1,17.2,13,26.1c2.2,5.2,4.1,10.6,6.7,15.6c2.7,5.5,6.2,10.7,9,16.2C734.6,664.4,738.4,679.9,741.8,695.1z M855.1,263.2
	l-0.7-0.4c-2.7-1.3-5.1-3-7.2-5.1c-6.3-7.2-8.9-17.8-10.6-27.2c-0.2-1.1-0.4-2.3-0.6-3.4C843.6,238.6,850.8,250.5,855.1,263.2z"/>
<path class="st1" d="M834.2,191c0.9,2,4.6,6.8,4.5,8.9c-0.2,2.6-5.3,5.3-7.2,6.9c-1.5,1.2-3.1,2.5-5.1,2.8c-2.3,0.1-4.6-0.8-6.1-2.6
	c-1.4-1.8-2.7-3.7-3.7-5.8c-2.2-3.9-5-7.6-8.2-10.8c-4.4-4.5-9.7-8.2-12.6-13.7c-2.6-4.8-3.1-10.6-2.2-16.1c0.6-4,2.1-8.1,5.4-10.4
	s7.8-2.4,11.5-1c3.8,1.4,7,4,9.9,6.6c1.8,1.5,3.3,3.2,4.6,5.1c1.8,3.1,2.3,6.7,2.9,10.3C829.4,178,831.4,184.6,834.2,191z"/>
<path class="st2" d="M834.2,191c0.9,2,4.6,6.8,4.5,8.9c-0.2,2.6-5.3,5.3-7.2,6.9c-1.5,1.2-3.1,2.5-5.1,2.8c-2.3,0.1-4.6-0.8-6.1-2.6
	c-1.4-1.8-2.7-3.7-3.7-5.8c-2.2-3.9-5-7.6-8.2-10.8c-4.4-4.5-9.7-8.2-12.6-13.7c-2.6-4.8-3.1-10.6-2.2-16.1c0.6-4,2.1-8.1,5.4-10.4
	s7.8-2.4,11.5-1c3.8,1.4,7,4,9.9,6.6c1.8,1.5,3.3,3.2,4.6,5.1c1.8,3.1,2.3,6.7,2.9,10.3C829.4,178,831.4,184.6,834.2,191z"/>
<path class="st3" d="M917.3,295.5c-5.5,5.9-13.2,10.2-21.2,9.7c-3.3-0.2-6.4-1.1-9.7-1.5c-3.7-0.4-7.6-0.1-11.3-0.9
	c-4.9-1-9.2-3.9-14.1-5.4c-3.4-1-6.9-1.3-10.3-2.2c-7.3-2-13.6-6.8-20.8-8.9c-3.7-1.1-7.7-1.4-11-3.3c-3.3-2.1-4.9-6.1-4-9.9
	c2.7-12.4-3.5-25.2-2-37.8c0.4-3.5,1.4-6.9,2.1-10.3c1.7-8.7,1.6-17.6,1.3-26.5c-0.1,3.8,3.6,6.8,7.3,7.2c3.8,0.4,7.4-1,10.9-2.5
	c0.2,9.5,0.5,19.1,2.3,28.5s4.3,19.9,10.6,27c2,2.2,4.6,3.7,7.2,5.1c3.1,1.8,6.4,3.3,9.8,4.6c13,4.6,27.4,1.7,41.2,1.9
	c8.3,0.1,16.5,1.4,24.5,3.7C926.4,281.4,922.8,289.7,917.3,295.5z"/>
<path class="st2" d="M917.3,295.5c-5.5,5.9-13.2,10.2-21.2,9.7c-3.3-0.2-6.4-1.1-9.7-1.5c-3.7-0.4-7.6-0.1-11.3-0.9
	c-4.9-1-9.2-3.9-14.1-5.4c-3.4-1-6.9-1.3-10.3-2.2c-7.3-2-13.6-6.8-20.8-8.9c-3.7-1.1-7.7-1.4-11-3.3c-3.3-2.1-4.9-6.1-4-9.9
	c2.7-12.4-3.5-25.2-2-37.8c0.4-3.5,1.4-6.9,2.1-10.3c1.7-8.7,1.6-17.6,1.3-26.5c-0.1,3.8,3.6,6.8,7.3,7.2c3.8,0.4,7.4-1,10.9-2.5
	c0.2,9.5,0.5,19.1,2.3,28.5s4.3,19.9,10.6,27c2,2.2,4.6,3.7,7.2,5.1c3.1,1.8,6.4,3.3,9.8,4.6c13,4.6,27.4,1.7,41.2,1.9
	c8.3,0.1,16.5,1.4,24.5,3.7C926.4,281.4,922.8,289.7,917.3,295.5z"/>
<path class="st4" d="M570.2,275.8c38,1.1,67.9,32.8,66.8,70.8c0,0,0,0,0,0c-1.1,38-32.8,67.9-70.8,66.8c-38-1.1-67.9-32.8-66.8-70.8
	C500.4,304.6,532.1,274.7,570.2,275.8 M482.3,342.1C482.3,342.1,482.3,342.1,482.3,342.1c-1.4,47.4,35.9,86.9,83.3,88.4
	c47.4,1.4,86.9-35.9,88.3-83.3s-35.9-86.9-83.3-88.3C523.3,257.5,483.8,294.7,482.3,342.1z"/>
<rect x="563.5" y="238.8" transform="matrix(0.9996 2.956750e-002 -2.956750e-002 0.9996 7.6258 -16.8504)" class="st4" width="20.1" height="21.2"/>
<rect x="514.1" y="249.6" transform="matrix(0.872 -0.4895 0.4895 0.872 -60.2976 289.8476)" class="st4" width="20.1" height="21.2"/>
<rect x="477.8" y="282.9" transform="matrix(0.5105 -0.8599 0.8599 0.5105 -13.5981 563.1725)" class="st4" width="20.1" height="21.2"/>
<rect x="474.4" y="379.5" transform="matrix(-0.5046 -0.8633 0.8633 -0.5046 392.1895 1005.2207)" class="st4" width="20.1" height="21.2"/>
<rect x="641.2" y="287.8" transform="matrix(-0.4587 -0.8886 0.8886 -0.4587 684.9435 1013.9404)" class="st4" width="20.1" height="21.2"/>
<rect x="638.8" y="384.4" transform="matrix(0.5548 -0.832 0.832 0.5548 -39.6853 715.7342)" class="st4" width="20.1" height="21.2"/>
<rect x="607" y="252.4" transform="matrix(-0.8416 -0.5402 0.5402 -0.8416 994.2367 817.5787)" class="st4" width="20.1" height="21.2"/>
<rect x="557.9" y="429.4" transform="matrix(0.9996 2.956750e-002 -2.956750e-002 0.9996 13.2576 -16.6004)" class="st4" width="20.1" height="21.2"/>
<rect x="509.2" y="415.7" transform="matrix(0.8416 0.5402 -0.5402 0.8416 312.5217 -212.9174)" class="st4" width="20.1" height="21.2"/>
<rect x="602" y="418.4" transform="matrix(-0.872 0.4895 -0.4895 -0.872 1355.8755 503.5505)" class="st4" width="20.1" height="21.2"/>
<rect x="651.7" y="339" transform="matrix(0.9996 2.956750e-002 -2.956750e-002 0.9996 10.5795 -19.4777)" class="st4" width="24.4" height="18"/>
<rect x="460.1" y="333.3" transform="matrix(-0.9996 -2.956750e-002 2.956750e-002 -0.9996 934.2767 698.4642)" class="st4" width="24.4" height="18"/>
<path class="st4" d="M733.9,151.4c37.1,1.1,66.6,31.4,66.8,68.5c0.2,38-30.5,69-68.5,69.2c-0.8,0-1.6,0-2.4-0.1
	c-37.1-1.1-66.6-31.4-66.8-68.5c-0.2-38,30.5-69,68.5-69.2C732.2,151.4,733.1,151.4,733.9,151.4 M734.4,134.4c-1,0-2,0-3,0
	c-46.3,0.2-84,37.1-85.4,83.3c-1.4,47.4,35.9,86.9,83.3,88.3c1,0,2,0,3,0c46.3-0.2,84.1-37.1,85.4-83.3
	C819,175.4,781.8,135.8,734.4,134.4L734.4,134.4L734.4,134.4z"/>
<rect x="723.9" y="114.3" transform="matrix(1 -5.160217e-003 5.160217e-003 1 -0.6347 3.789)" class="st4" width="20.1" height="21.2"/>
<rect x="674.9" y="126.8" transform="matrix(0.8545 -0.5195 0.5195 0.8545 28.2848 375.7715)" class="st4" width="20.1" height="21.2"/>
<rect x="639.7" y="161.3" transform="matrix(0.4803 -0.8771 0.8771 0.4803 186.891 659.2809)" class="st4" width="20.1" height="21.2"/>
<rect x="639.7" y="257.9" transform="matrix(-0.5343 -0.8453 0.8453 -0.5343 769.9821 961.2648)" class="st4" width="20.1" height="21.2"/>
<rect x="803.3" y="160.5" transform="matrix(-0.4893 -0.8721 0.8721 -0.4893 1062.0879 964.0832)" class="st4" width="20.1" height="21.2"/>
<rect x="805.6" y="258.7" transform="matrix(0.5237 -0.8519 0.8519 0.5237 159.0481 823.1688)" class="st4" width="20.2" height="21.3"/>
<rect x="767.8" y="126.3" transform="matrix(-0.8598 -0.5106 0.5106 -0.8598 1376.7019 651.7513)" class="st4" width="20.1" height="21.2"/>
<rect x="724.9" y="304.9" transform="matrix(1 -5.160217e-003 5.160217e-003 1 -1.6183 3.7966)" class="st4" width="20.1" height="21.2"/>
<rect x="675.7" y="292.9" transform="matrix(0.8598 0.5106 -0.5106 0.8598 251.1161 -307.5933)" class="st4" width="20.1" height="21.2"/>
<rect x="768.6" y="292.4" transform="matrix(-0.8545 0.5195 -0.5195 -0.8545 1601.4373 157.4861)" class="st4" width="20.1" height="21.2"/>
<rect x="815.5" y="211.3" transform="matrix(1 -5.160217e-003 5.160217e-003 1 -1.1255 4.2737)" class="st4" width="24.4" height="18"/>
<rect x="623.8" y="212.2" transform="matrix(-1 5.160314e-003 -5.160314e-003 -1 1272.9991 439.1452)" class="st4" width="24.4" height="18"/>
<path class="st1" d="M922.3,662.7c-4.5,2-7,10.6-8.7,14.8c-1.9,4.9-3.6,10.6-0.9,15.1c2.2,3.8,6.8,5.4,9.9,8.5
	c4.2,4.2,5.4,10.4,6.3,16.3c0.6,4.3,1.3,9.1,4.7,12c3,2.5,7.4,2.6,11.3,1.7c1.8-0.4,3.4-1.1,4.9-2.2c1.7-1.5,2.9-3.3,3.7-5.4
	c2.7-6.6,3.2-13.8,3.3-21c0.1-8.8-0.3-17.8-3.4-26.1c-1.2-3.3-3-6.6-5.9-8.5c-2.2-1.2-4.6-2-7-2.4
	C935.8,664.5,926.8,660.7,922.3,662.7z"/>
<path class="st1" d="M773.2,673.4c-1.5-0.9-5.3,0.9-7,1.1c-5.1,0.7-10.4,2.3-13.4,6.4c-3.7,5.1-2.6,12.4-5.8,17.8
	c-2.5,4.4-7.2,6.9-11.6,9.5c-4.3,2.6-8.8,6-9.9,10.9c-0.4,2.1-0.5,4.3-0.2,6.4c0.1,0.7,0.2,1.4,0.8,1.7c0.3,0.1,0.7,0.1,1,0
	c20.4-1.9,41.1-8.3,56.2-22.2c0.8-0.7,1.5-1.5,1.9-2.4c1.1-2.8-1.2-5.6-3.2-8c-3.1-3.8-5.4-8.3-6.6-13.1
	C774.9,679.8,774.7,674.3,773.2,673.4z"/>
<path class="st4" d="M944.8,668.6c0.8,1.4,1.3,3.1,1.4,4.7c1.2,14.9,0.1,29.9,2.4,44.7c0.4,1.7,0.4,3.5,0,5.3
	c-0.6,1.7-2.5,3-4.2,2.3c-1.3-0.5-1.9-2.1-2.5-3.4c-2.7-5.7-8.4-9.5-14.7-9.7l0.1,6c0.1,0.5,0,1-0.3,1.5c-0.2,0.3-0.5,0.5-0.8,0.7
	l-4.8,3c-3.5,2.1-7.3,4.9-7.6,9c-0.1,1.2,0.2,2.4,0.9,3.3c1.1,1.1,2.6,1.8,4.1,2c8.1,1.9,16.4,3.8,24.7,3c3.9-0.4,8-1.6,10.7-4.5
	c2.4-2.6,3.3-6.4,4-9.9c1.2-6.1,2.2-12.1,3.1-18.2c0.6-4.1,1.1-8.3,2.9-12.1c0.1-0.3,0.4-0.6,0.7-0.8c0.4-0.1,0.8,0,1.1-0.1
	c0.4-0.2,0.7-0.7,0.8-1.1c1.7-5.9,2.6-12,2.7-18.1c0.1-1.6-0.1-3.2-0.6-4.7c-1-2.7-3.7-4.4-6.4-5.2c-2.7-0.8-5.6-0.9-8.4-1.2
	c-2.4-0.3-4.7-0.8-7-1.5c-0.9-0.4-1.9-0.5-2.9-0.5c-1,0.1-1.8,0.9-1.8,1.9C942.5,666.4,944,667.4,944.8,668.6z"/>
<path class="st4" d="M731.3,707.6c-5.1,2.8-9.3,7-14.7,9.4c-1.9,0.9-3.9,1.5-5.7,2.5c-4.6,2.3-8.1,6.3-10.9,10.6
	c-1.5,2.3-2.9,5.3-1.5,7.7c0.5,0.8,1.3,1.5,2.1,2c2.1,1.6,4.7,2.4,7.3,2.4c1.6-0.1,3.2-0.6,4.7-0.9c2.1-0.3,4.2-0.1,6.3-0.2
	c3.1-0.3,6.1-1,8.9-2l10.5-3.3c3-0.8,5.9-1.9,8.7-3.2c1.7-0.8,3.3-1.8,5-2.6c1.9-0.8,3.9-1.4,5.9-1.8l6-1.6c0.9-0.3,1.8-0.4,2.7-0.3
	c0.8,0.2,1.5,0.7,2.3,0.9c1.3,0.3,2.6,0.2,3.8-0.3l6.9-1.7c1.5-0.3,2.9-0.8,4.1-1.5c3.2-2.1,3.9-6.5,4-10.4
	c0.2-5.8-0.3-11.7-1.5-17.4c-2.2,0.8-3.4,3.1-4.7,5c-1.4,1.9-3.1,3.7-5,5.2c-11.3,9.5-25.3,15.3-40,16.7c-0.7,0.1-1.5,0-2.2-0.3
	c-1.1-0.7-1.1-2.4-0.4-3.6c0.7-1.2,1.8-2,2.5-3.1C738.9,712.3,736.1,705,731.3,707.6z"/>
<path class="st1" d="M920.7,282.2c2.3-5,3.7-10.4,4-15.9c0-0.1,0-0.3,0-0.4c0.1-3.6-1.8-11.6,1-13.7c3.1-2.3,11.5,1.1,15,1.6
	c6.1,0.8,12.2,1.2,18.3,1c-2,5.4-3.5,11-4.6,16.6c-0.8,4.4-0.7,8.9,0.3,13.3c1.9,8.3,7.5,15.2,13,21.7c-14.4,2-29,2.8-43.5,2.3
	c-3.5,0-7-0.3-10.4-0.9c-6.6-1.1-12.8-3.8-18.2-7.7C906.4,299.7,916,291.9,920.7,282.2z"/>
<path class="st2" d="M925.8,252.1c3.1-2.3,11.5,1.1,15,1.6c6.1,0.8,12.2,1.2,18.3,1c-2,5.4-3.5,11-4.6,16.6
	c-10.3,2.6-21.2,0.6-29.9-5.5C924.7,262.2,922.9,254.2,925.8,252.1z"/>
<circle class="st1" cx="945.7" cy="234.1" r="36.6"/>
<path class="st3" d="M813.6,383c4.9-5.3,9.5-10.9,13.7-16.7l18.6-25c3.2-4.3,6.5-8.8,7.9-14c1.7-6.3,0.5-13.1,2.2-19.4
	c1.5-5.7,5.4-10.5,10.2-14.1c1.4-1,2.8-1.9,4.3-2.7c6.7-3.6,14.3-5.2,21.8-6.4c1.6-0.4,3.3-0.4,4.9-0.1c3.7,0.9,5.3,5.3,9,6.4
	l7.2,2.2c6.6,2,13.4,4.1,20.3,3.8c2.2-0.1,4.4-0.4,6.6-0.8c6.5-1.2,13-3,19.3-1.2c6.3,1.9,11.1,7.2,14.6,12.8
	c1.4,2.1,2.5,4.4,3.1,6.8c0.1,0.3,0.1,0.7,0.2,1c0.4,3.7-1,7.4-2.5,10.9c-2.6,6.5-5.6,12.9-9,19.1c-1.1,1.8-2.2,3.6-3.5,5.4
	c-4.5,6.2-10.1,11.4-15.6,16.5c-11.1,10.3-22.4,20.7-36,27.1c-4.6,2.1-9.6,3.9-13.2,7.5c-1.8,1.7-3.3,4.1-5.7,4.6
	c-1.5,0.3-3.2-0.1-4.6,0.5c-2.1,0.8-3,3.3-4,5.3c-1,2-3.3,4.1-5.3,3.1c0.7,3.9-0.9,7.9-4.2,10.2c-1,0.5-1.9,1.3-2.6,2.2
	c-0.4,0.8-0.6,1.7-0.6,2.6c-0.6,3.7-3.5,6.6-6.9,8.2c-3.4,1.5-7.2,1.9-10.9,2c-17.2,0.5-34.3-3.3-50.9-7.8c-3.1-0.7-6.1-1.8-8.9-3.4
	c-5.1-3.2-8-8.9-7.8-14.9C785.6,400.5,803.7,393.1,813.6,383z"/>
<path class="st1" d="M846.2,191.3c0.9,2,4.6,6.8,4.5,8.9c-0.2,2.6-5.3,5.3-7.2,6.9c-1.5,1.2-3.2,2.5-5.1,2.8
	c-2.3,0.1-4.6-0.8-6.1-2.6c-1.4-1.8-2.7-3.7-3.7-5.8c-2.2-3.9-5-7.6-8.2-10.8c-4.4-4.5-9.7-8.2-12.6-13.7
	c-2.6-4.8-3.1-10.6-2.2-16.1c0.6-4,2.1-8.1,5.4-10.4c3.3-2.3,7.8-2.4,11.5-1c3.8,1.4,7,4,9.9,6.6c1.8,1.5,3.3,3.2,4.6,5.1
	c1.8,3.1,2.3,6.7,2.9,10.3C841.3,178.3,843.4,185,846.2,191.3z"/>
<path class="st4" d="M694,573.4c0.7-5.9,4.4-11,5.9-16.7c6.2-23.5,20.2-44.8,29.1-67.4c2.3-5.7,4.4-11.5,7.2-17
	c5.3-10.6,12.6-20.1,19.9-29.5c2.6-3.6,5.5-7,8.7-10.1c2.6-2.4,5.5-4.5,7.8-7.2c4.9-5.4,7.3-13.4,13.3-17.5
	c1.7,4.9,4.6,9.6,9.1,12.3c3.3,2,7.2,2.6,11.1,3.2l33.4,5.4c7.3,1.1,14.6,2.3,21.7,4.6c1.7,0.4,3.2,1.3,4.4,2.4
	c3,3.3,0.9,8.4,0.7,12.8c-0.1,3.3,0.9,6.6,1.6,9.9c1.9,9.6,0.4,19.6-1.7,29.2c-1.1,5.3-2.6,10.8-6.2,14.8c-1.2,1.3-2.6,2.4-3.8,3.7
	c-2.4,2.5-4.3,5.3-5.9,8.4c-3.2,6.1-5.5,12.6-6.7,19.3c-0.6,3.4-1.7,6.7-3.2,9.7c-2.3,4.7-0.5,10.6-2.6,15.4c-1,2.1-2.6,3.9-3.2,6.2
	c-0.8,3.3,0.8,6.7,1.2,10c0.9,7.9-5,15-5.8,23c-0.1,0.5,0,0.9,0.2,1.3c0.4,0.5,1.1,0.5,1.6,0.7c1,0.5,1.2,1.9,1.5,3
	c0.3,1.1,1.2,2.4,2.3,2.1c16.2,9.2,33,17.8,49.2,27l7.4,4.2l39.5,22.5c1,0.5,1.6,1.5,1.7,2.6c-0.3,5-2.3,9.7-4.3,14.3
	c-2.3,5.3-4.7,10.7-8.6,15.1c-3.8,4.4-9.2,7.7-15,7.7c-5.8-8.2-14.1-13.9-22.4-19.5c-6.8-4.5-13.7-8.6-20.9-12.4
	c-5.8-3.1-11.7-6-17.8-8.7c-8.5-3.9-17.2-7.3-25.9-10.7c-5.8-2.3-11.6-4.5-16.9-7.7c-13.8-8.4-23.2-24.8-20.9-40.8
	c3-20.2-1.5-41.4-0.5-61.8c0.3-5.9,0.7-12,2.7-17.6c-0.4,0.3-0.8,0.6-1.2,1c-3.8,3.3-4.8,8.6-8.4,12.3c-2.8,2.9-7,4.7-8.7,8.4
	c-1.3,2.8-1.3,6.6-3.9,8.2c-0.8,0.4-1.6,0.6-2.4,1c-0.9,0.6-1.7,1.4-2.3,2.3c-2.9,3.8-5.9,7.9-6.4,12.7c-0.2,1.9-0.1,4.1-1.5,5.3
	c-0.4,0.3-0.9,0.6-1.2,1.1c-0.5,1,0.6,2.1,0.8,3.2c0.2,1.5-1.3,2.7-2.3,3.9c-1.7,2.1-1.8,5.1-0.2,7.4c7.9,10.8,9,25.1,15.8,36.6
	c2.4,4,5,7.7,7.3,11.8c7,12.3,10.3,26.4,13.6,40.2c-1.7,2.7-3.9,5-6.5,6.7c-0.6,0.4-1.2,0.8-1.9,1.2c-9.8,5.3-20.4,8.8-31.5,10.1
	c-3.5-15.1-7.3-30.5-14.5-44.2c-2.9-5.4-6.3-10.6-9-16.1c-2.5-5-4.4-10.4-6.7-15.5c-3.8-8.9-8.6-17.3-13-25.9
	C696,585.8,693.2,579.7,694,573.4z"/>
<path class="st2" d="M876.5,401.5c-1-0.9-1.3-1-1.2,0.7c0.2,3.7,5.2,5.9,5.9,9.6c0.1-1.7-0.3-3.4-1.1-5
	C878.6,405.3,878,403,876.5,401.5z"/>
<path class="st2" d="M860.8,417c0,1,2.7,3.4,3.2,4.4c0.7,1.1,1.2,2.3,1.5,3.6c0.2,0.8,0.4,1.7,1.2,2.1c0.6-2,0.5-4.1-0.3-6
	c-0.4-1.3-1.2-2.6-2.2-3.5C863.5,417,860.9,415.4,860.8,417z"/>
<path class="st2" d="M870.4,291c6.7-3.6,14.3-5.2,21.8-6.4c1.6-0.4,3.3-0.4,4.9-0.1c3.7,0.9,5.3,5.3,9,6.4l7.2,2.2
	c6.6,2,13.4,4.1,20.3,3.8c2.2-0.1,4.4-0.4,6.6-0.8c4.5,0.9,9,1.6,13.4,2.6c8.4,1.9,17.1,5.4,21.9,12.7c0.7,1,1.2,2.1,1.7,3.2
	c0.9,1.9,1.6,3.9,2.1,6c1,3.2,1.4,6.5,1,9.8c-0.7,4.8-4,9-7.9,11.8c-2,1.4-4.2,2.6-6.5,3.5c-2.2,0.9-4.5,1.6-6.8,2.2
	c-3.8,1.2-7.8,1.8-11.8,1.7c-4-0.3-8.1-2.1-10.4-5.2c-2.3-3-2.2-7.9-4.7-10.8c-1.4-1.5-3-2.7-4.7-3.8l-21.3-14.4
	c-3.3-2.3-6.7-4.5-10.3-6.4c-7.2-3.8-15.2-6-22.3-9.8c-2.7-1.5-5.3-3.3-7.6-5.4C867.4,292.7,868.9,291.8,870.4,291z"/>
<path class="st3" d="M836.3,199.7c-4.7,2.2-9,5.7-11,10.4c-0.2,0.5-0.1,1.5-0.6,1.6c14,20.7,30.4,41.9,34,66.6
	c1.2,8,7.8,14.3,14.9,18.2c7.1,3.9,15.1,6,22.3,9.8c3.5,1.9,7,4.1,10.3,6.4l21.3,14.4c1.7,1,3.3,2.3,4.7,3.8
	c2.6,2.9,2.3,7.6,4.7,10.8c2.4,3.2,6.4,4.9,10.4,5.2c4,0.1,8-0.4,11.8-1.7c4.7-1.3,9.4-2.9,13.3-5.7c4-2.8,7.2-7,7.9-11.8
	c0.4-3.3,0-6.6-1-9.8c-0.8-3.2-2.1-6.3-3.9-9.1c-4.8-7.1-13.5-10.8-21.9-12.7s-17.2-2.6-25.2-5.9c-10-4.1-18.7-12.3-29.3-14.4
	c-5.9-6-10.6-13.1-15.1-20.2l-7.8-12c-2.7-4-5.1-8.1-7.2-12.3c-1.9-3.9-3.3-8-5.4-11.8c-4.4-7.8-11.6-14.5-12.3-23.4
	C846.2,197,841,197.5,836.3,199.7z"/>
<path class="st4" d="M933.8,212.9c3.3,4.2,4.8,9.7,5.1,15c0.4,7.1-1.1,14.1-1.8,21.1c-1.3,11.8-0.2,24.6,6.9,34.1
	c4,5.4,9.5,9.3,14.5,13.7s9.6,9.9,10.6,16.5c1.4,8.8-3.9,17.5-3.8,26.4c0.1,4.4,1.4,8.6,2.8,12.7c1.7,5.3,3.6,10.8,7.9,14.4
	c4.8,4,11.6,4.6,17.9,4.9l24.6,1.4c-8.1-12.4-8.3-28.2-7.3-43c2.5-37.9,11.1-76.1,5.3-113.6c-0.7-4.5-1.7-9.1-4.3-12.8
	c-3.5-4.8-9.4-7.3-15.2-8.8c-5.8-1.5-11.8-2.3-17.2-4.9c-4.6-2.2-8.5-5.6-13.5-6.9c-3.6-0.9-7.3-0.6-11-0.1
	c-4.5,0.5-8.9,1.2-13.3,1.9c-4.6,0.8-9.7,2.1-12.2,6c-1.3,2.3-1.9,5-1.7,7.7C928.1,205.2,930,208.2,933.8,212.9z"/>
<path class="st2" d="M928,198.6c0.1,6.6,2.1,9.6,5.9,14.4c3.3,4.2,4.8,9.7,5.1,15c0.4,7.1-1.1,14.1-1.8,21.1
	c-1.3,11.8-0.2,24.6,6.9,34.1c4,5.4,9.5,9.3,14.5,13.7c5,4.5,9.6,9.9,10.6,16.5c1.4,8.8-3.9,17.5-3.8,26.4c0.1,4.4,1.4,8.6,2.8,12.7
	c1.7,5.3,3.6,10.8,7.9,14.4c4.8,4,11.6,4.6,17.9,4.9l24.6,1.4c-0.4-0.6-0.8-1.3-1.2-1.9l-17.4-1c-6.3-0.3-13-0.9-17.9-4.9
	c-4.3-3.5-6.2-9.1-7.9-14.4c-1.3-4.2-2.7-8.4-2.8-12.7c-0.2-8.9,5.2-17.6,3.8-26.4c-1-6.6-5.7-12.1-10.6-16.5
	c-5-4.4-10.5-8.4-14.5-13.7c-7.1-9.5-8.1-22.3-6.9-34.1c0.8-7,2.2-14,1.8-21.1c-0.3-5.3-1.8-10.8-5.1-15c-3.8-4.8-5.7-7.8-5.9-14.4
	c-0.2-2.7,0.4-5.3,1.7-7.7c1.5-2.1,3.6-3.6,6-4.4c-4.5,0.8-9.5,2.1-12,5.9C928.4,193.2,927.8,195.9,928,198.6z"/>
<path class="st2" d="M779,498.8l2.9,21.3l-0.3,0.8c-3.8,3.3-4.8,8.6-8.4,12.3c-2.8,2.9-7,4.7-8.7,8.4c-1.3,2.8-1.3,6.6-3.9,8.2
	c-0.8,0.4-1.6,0.6-2.4,1c-0.9,0.6-1.7,1.4-2.3,2.3c-2.9,3.8-5.9,7.9-6.4,12.7c-0.2,1.9-0.1,4.1-1.5,5.3c-0.4,0.3-0.9,0.6-1.2,1.1
	c-0.5,1,0.6,2.1,0.8,3.2c0.2,1.5-1.3,2.7-2.3,3.9c-1.7,2.1-1.8,5.1-0.2,7.4c7.9,10.8,9,25.1,15.8,36.6c2.4,4,5,7.7,7.3,11.8
	c7,12.3,10.3,26.4,13.6,40.2c-1.7,2.7-3.9,5-6.5,6.7l-41.9-111.4L779,498.8z"/>
</svg>
