<?xml version="1.0" encoding="utf-8"?>
<!-- Generator: Adobe Illustrator 19.0.0, SVG Export Plug-In . SVG Version: 6.00 Build 0)  -->
<svg version="1.1" id="bafbdcdd-db4a-4743-9ceb-46364dc67d6e"
	 xmlns="http://www.w3.org/2000/svg" xmlns:xlink="http://www.w3.org/1999/xlink" x="0px" y="0px" viewBox="120 23.9 851 746.1"
	 style="enable-background:new 120 23.9 851 746.1;" xml:space="preserve">
<style type="text/css">
	.st0{fill:#131726;}
	.st1{fill:#7984BE;}
	.st2{fill:#FFFFFF;}
	.st3{fill:#2F2E41;}
	.st4{fill:#9F616A;}
	.st5{opacity:0.1;enable-background:new    ;}
	.st6{fill:#D0CDE1;}
</style>
<title>ideas</title>
<ellipse class="st0" cx="594.5" cy="715.5" rx="308.5" ry="54.5"/>
<path class="st1" d="M389.2,362.6c45.3-67.3,27.4-158.6-39.9-203.9s-158.6-27.4-203.9,39.9S118,357.2,185.3,402.5
	c40.1,26.9,90.8,32.5,135.7,14.8c7.1,25.3,33.3,40,58.6,32.9c25.3-7.1,40-33.3,32.9-58.6C409.1,379.2,400.6,368.7,389.2,362.6z"/>
<rect x="179.8" y="251.2" class="st2" width="174.7" height="13.8"/>
<rect x="179.8" y="274.2" class="st2" width="174.7" height="13.8"/>
<rect x="179.8" y="297.2" class="st2" width="174.7" height="13.8"/>
<path class="st1" d="M701.8,253.4C656.5,186,674.4,94.8,741.7,49.5S900.3,22,945.6,89.4c45.3,67.3,27.4,158.6-39.9,203.9
	c-40.1,26.9-90.8,32.5-135.7,14.8c-7.1,25.3-33.3,40-58.6,32.9c-25.3-7.1-40-33.3-32.9-58.6C681.9,270,690.4,259.5,701.8,253.4z"/>
<rect x="736.5" y="142" class="st2" width="174.7" height="13.8"/>
<rect x="736.5" y="165" class="st2" width="174.7" height="13.8"/>
<rect x="736.5" y="188" class="st2" width="174.7" height="13.8"/>
<path class="st1" d="M446.7,655.4c-25.3-37.6-15.3-88.5,22.3-113.8c37.6-25.3,88.5-15.3,113.8,22.3c25.3,37.6,15.3,88.5-22.3,113.8
	c-22.4,15-50.7,18.1-75.8,8.3c-4,14.1-18.6,22.3-32.7,18.4c-14.1-4-22.3-18.6-18.4-32.7C435.6,664.7,440.3,658.8,446.7,655.4
	L446.7,655.4z"/>
<circle class="st2" cx="482.6" cy="607.8" r="9.5"/>
<circle class="st2" cx="514.9" cy="607.8" r="9.5"/>
<circle class="st2" cx="547.3" cy="607.8" r="9.5"/>
<path class="st3" d="M524.4,313.4c0,0,42.3,1.2,49.3,3.7s10.1,20.7,10.1,20.7L551,348.1l-24.6-1.4l-18.5,1.3l10.3-27.1L524.4,313.4z
	"/>
<path class="st4" d="M526.3,299.5c0,0,2.8,10.8-3.4,18.4s26.6,34.8,26.6,34.8l17.3-3c0,0-3.8-33.1,1.3-41.4S526.3,299.5,526.3,299.5
	z"/>
<path class="st5" d="M526.3,299.5c0,0,2.8,10.8-3.4,18.4s26.6,34.8,26.6,34.8l17.3-3c0,0-3.8-33.1,1.3-41.4S526.3,299.5,526.3,299.5
	z"/>
<polygon class="st4" points="641.2,614.1 603.1,664.7 629.1,679.9 664.9,621.2 "/>
<path class="st3" d="M614.5,665.5c0,0-14-16.3-13.4-12.7s-10,34.5-0.1,37.5s94.6,10.9,95.8,1.3s-25.3-16.3-25.3-16.3
	s-15.7-15.1-19.2-13.6S614.5,665.5,614.5,665.5z"/>
<polygon class="st4" points="632.7,662.4 663.1,714.3 686.1,701 655.4,658.5 "/>
<path class="st3" d="M680.8,538.9l-9,12.8c0,0-43.1,59.9-38.5,64.7s23.6,23.1,33.3,19.6s44.1-64.7,44.1-64.7l-9-35.9L680.8,538.9z"
	/>
<path class="st3" d="M495.1,526.8c0,0,9.7,18,34.1,24.1s50,18.6,50.9,18.4s3.5-1.5,4.1,2.1s7.3,10,7.3,10s27,91.8,37.3,91.9
	s31.5-7.3,32-10.2s-31.6-96.7-31.9-98.5l-3.8-21.8c0,0,42.4,6.8,46.3,8s39.1,20.4,39.1,20.4s35.8-25.8,2.3-51.9
	s-91.1-45.2-91.1-45.2l-20.7-5.8l-18-1.1l-2.7-10.2l-42.7,2.5l-44.5,18.9L495.1,526.8z"/>
<circle class="st4" cx="551.4" cy="287.6" r="33.2"/>
<path class="st6" d="M521.3,314.4l4-0.7c0,0,7.2,27.8,29.6,32.4c0,0,11-13.2,10.5-15.4s8.7-14.1,13.6-7.5S577.8,447,582,449.1
	s12.9,4.3,5.8,12.1c-7.1,7.8-35.3,18.2-41.5,14.6s-19-34.2-24.5-44.5s-14.3-45.3-14.3-45.3s-11.3-38.3-4.3-47
	S521.3,314.4,521.3,314.4z"/>
<path class="st3" d="M553.1,458.6c-0.7,8.2-2,16.3-3.8,24.3c-1.6,6.5-3.5,10.4-5.7,10.3c-5.5-0.4-8,7.7-9.3,17
	c-1.4,9.9-1.4,21.2-2.1,25.2c-1,5.3-7.4,9.3-20.3,8.1c-7.7-0.9-15.2-2.7-22.3-5.5c-17.3-6.3-16.8-57.5-13.9-95.4
	c1.8-23.3,4.4-41.6,4.4-41.6s-5.3-15.7-7-26.5c-0.3-2-0.5-4-0.5-5.9c0.3-9.4,17.4-34.8,27.8-50.7c10.4-15.8,24.6-4.2,24.6-4.2
	l-4.9,14.9c0,0,7.6,11.8,7.7,23s18.3,19.3,24.9,24.8C556.7,379.8,556.6,425.4,553.1,458.6z"/>
<path class="st3" d="M567.6,319.1c0,0,1.2,1.4,6.7,0.7c6.6-0.8,15.6,1.4,17.7,7.7c3.9,11.5,14.7,58.4,14.7,58.4s4.5,53.5,6.6,65.4
	c2,11.8,1,22.3,3,28.5s-19.8-11.6-27.8-9.3s-13.2-27.7-12.2-38.2s1.9-21.9-0.9-32.6s2.2-39.2,2-45.8S559.6,330.9,567.6,319.1z"/>
<path class="st4" d="M591.1,485.5c0,0,35.2,19.2,38.6,46.5s-47.1-26.5-47.1-26.5L591.1,485.5z"/>
<path class="st4" d="M611.2,466.1c0,0,10.8,54.3,27.6,51.5s-9.4-54.6-9.4-54.6L611.2,466.1z"/>
<path class="st3" d="M668.7,703c0,0-8.6,9.9-10.7,8.4s-7,19-2.6,22.9s21.5,10.4,21.6,16.9s45.9,5.2,47.5-1.6s-5.7-22.4-10.9-25.3
	s-24.3-29.2-24.3-29.2S674.3,697.4,668.7,703z"/>
<path class="st5" d="M585.5,518.7c-8.2-5.8-30.9-7.2-51.2-8.5c-8.9-0.6-17.3-1.1-23.7-2c-6.2-0.9-11.8-6.5-16.7-15
	c-7.5-12.8-13.6-32-18.3-50.5c1.8-23.3,4.4-41.6,4.4-41.6s-5.3-15.7-7-26.5c1.2-1.7,2.7-3,4.5-4c21.5-9.2,41.9,81.4,44.5,95.6
	c0,0.2,0.1,0.5,0.1,0.6c1.3,7.3,14.9,13.6,27.1,16.1c7.5,1.5,14.5,1.6,17.7-0.4c8.5-5.2,34.5,15.6,36.5,16.2
	C605.6,499.3,597.2,527,585.5,518.7z"/>
<path class="st3" d="M477.6,365c0,0-15.6,7.4-8.7,41.8s20.7,92.9,41.8,95.9s63.1,2.3,74.9,10.5s20.1-19.4,18.1-20
	s-28-21.4-36.5-16.2s-42.8-3.9-44.8-15.7S499.4,355.6,477.6,365z"/>
<path class="st3" d="M589.9,348.5l17.1,39.8c0,0,1.7-0.9,3.7,5.4s2.9,11.7,6.5,15.8s19.1,62.3,19.6,65s-21.6,12.1-26.5,4.6
	S589.9,348.5,589.9,348.5z"/>
<path class="st3" d="M532.5,287.2c1.3-0.3,1.5-2,1.5-3.3c0.2-7.1,4.5-14.3,11.2-16.3c2.6-0.7,5.3-0.9,8-0.4
	c3.8,0.5,7.4,1.7,10.8,3.6c1.8,1,3.5,2.2,5.5,2.5c1.3,0.2,7,1.9,8.3,2.1c2.9,0.5,5.6,3.1,8.3,2.1c2.6-0.9,3.2-4.3,3.3-7.2
	c0.1-6.4-4.7-15.2-9-20c-3.2-3.6-8.1-5.3-12.9-6.1c-5.6-0.9-11.2-1.2-16.9-1c-7.6,0.1-15.5,0.7-22.4,4s-12.7,9.9-13,17.5
	c-0.1,1.6,0.1,3.2,0,4.8c-0.3,3.9-2.4,7.4-3.3,11.1c-1.4,5.6-0.4,11.5,2.8,16.3c2.6,3.8,6.6,7.2,6.4,11.7l5.5-5.7
	c1.7-1.3,2.3-3.6,1.4-5.6l-2-7.6c-0.5-1.4-0.6-2.9-0.2-4.3C528.1,280,530.4,287.8,532.5,287.2z"/>
</svg>
