<?xml version="1.0" encoding="utf-8"?>
<!-- Generator: Adobe Illustrator 19.0.0, SVG Export Plug-In . SVG Version: 6.00 Build 0)  -->
<svg version="1.1" id="ae37f038-3a9e-4b82-ad68-fc94ba16af2a"
	 xmlns="http://www.w3.org/2000/svg" xmlns:xlink="http://www.w3.org/1999/xlink" x="0px" y="0px" viewBox="242 109.3 1096 574.7"
	 style="enable-background:new 242 109.3 1096 574.7;" xml:space="preserve">
<style type="text/css">
	.st0{fill:none;}
	.st1{opacity:0.1;}
	.st2{fill:#3F3D56;}
	.st3{fill:#4285F4;}
	.st4{opacity:0.1;enable-background:new    ;}
	.st5{opacity:0.1;fill:#4285F4;enable-background:new    ;}
	.st6{fill:none;stroke:#3F3D56;stroke-width:4;stroke-miterlimit:10;}
	.st7{fill:url(#SVGID_1_);}
	.st8{fill:url(#SVGID_2_);}
	.st9{opacity:0.1;fill:none;stroke:#000000;stroke-miterlimit:10;enable-background:new    ;}
	.st10{fill:#FBBEBE;}
	.st11{fill:#2F2E41;}
	.st12{fill:#E8E8F0;}
	.st13{fill:url(#SVGID_3_);}
	.st14{fill:#F86D70;}
	.st15{fill:#3A3768;}
</style>
<pattern  x="242" y="684" width="36.9" height="49.5" patternUnits="userSpaceOnUse" id="ad310e25-2b04-44c8-bb7b-9823891" viewBox="0 -49.5 36.9 49.5" style="overflow:visible;">
	<g>
		<polygon class="st0" points="0,0 36.9,0 36.9,-49.5 0,-49.5 		"/>
		<polygon class="st0" points="0,0 36.9,0 36.9,-49.5 0,-49.5 		"/>
		<path d="M4.3-13.2c4.5,0,4.5,7,0,7S-0.2-13.2,4.3-13.2z"/>
		<path d="M4.5-17.2c4.5,0,4.5,7,0,7S0-17.2,4.5-17.2z"/>
		<path d="M4.5-20.9c4.5,0,4.5,7,0,7S0-20.9,4.5-20.9z"/>
		<path d="M3.4-24.7c4.5,0,4.5,7,0,7S-1.1-24.7,3.4-24.7z"/>
		<path d="M1.1-28.3l0.2-0.4c1-1.7,3.1-2.2,4.8-1.3c1.6,1,2.2,3.1,1.3,4.8l-0.2,0.4c-1,1.7-3.1,2.2-4.8,1.3
			C0.7-24.5,0.2-26.6,1.1-28.3z"/>
		<path d="M1.5-30.1l0.2-0.6c0.3-0.9,0.8-1.6,1.6-2.1c0.8-0.5,1.8-0.6,2.7-0.3c1.9,0.5,2.9,2.4,2.4,4.3l-0.2,0.6
			c-0.3,0.9-0.8,1.6-1.6,2.1c-0.8,0.5-1.8,0.6-2.7,0.4C2.1-26.3,1-28.2,1.5-30.1z"/>
		<path d="M1.6-33.9v-0.4c0-1.9,1.6-3.5,3.5-3.5c1.9,0,3.5,1.6,3.5,3.5v0.4c0,1.9-1.6,3.5-3.5,3.5C3.2-30.4,1.6-32,1.6-33.9z"/>
		<path d="M4.9-42.3c4.5,0,4.5,7,0,7S0.4-42.3,4.9-42.3z"/>
		<path d="M1.8-42v-0.2c0-1.9,1.6-3.5,3.5-3.5c1.9,0,3.5,1.6,3.5,3.5v0.2c0,1.9-1.6,3.5-3.5,3.5C3.4-38.5,1.8-40.1,1.8-42z"/>
		<path d="M6-49.3c4.5,0,4.5,7,0,7S1.5-49.3,6-49.3z"/>
		<path d="M10-14.1c4.5,0,4.5,7,0,7S5.5-14.1,10-14.1z"/>
		<path d="M6.6-20.9c4.5,0,4.5,7,0,7S2.1-20.9,6.6-20.9z"/>
		<path d="M8.5-27c4.5,0,4.5,7,0,7S4-27,8.5-27z"/>
		<path d="M8.5-29.3c4.5,0,4.5,7,0,7S4-29.3,8.5-29.3z"/>
		<path d="M14.9-33.8c4.5,0,4.5,7,0,7S10.4-33.8,14.9-33.8z"/>
		<path d="M9.8-38.5c4.5,0,4.5,7,0,7S5.3-38.5,9.8-38.5z"/>
		<path d="M10.6-45.1c4.5,0,4.5,7,0,7S6.1-45.1,10.6-45.1z"/>
		<path d="M10.6-49.5c4.5,0,4.5,7,0,7S6.1-49.5,10.6-49.5z"/>
		<path d="M12.8-18.1c2.6,0,2.6,4,0,4S10.3-18.1,12.8-18.1z"/>
		<path d="M13-20.4c2.6,0,2.6,4,0,4S10.4-20.4,13-20.4z"/>
		<path d="M13.1-21v-0.2c0-1.1,0.9-2,2-2s2,0.9,2,2v0.2c0,1.1-0.9,2-2,2S13.1-19.9,13.1-21z"/>
		<path d="M15.1-25.9c2.6,0,2.6,4,0,4S12.5-25.9,15.1-25.9z"/>
		<path d="M16.6-11.1c0.6,0,1,0.4,1,1s-0.4,1-1,1s-1-0.4-1-1S16.1-11.1,16.6-11.1z"/>
		<path d="M21.7-16.5c0.6,0,1,0.4,1,1c0,0.6-0.4,1-1,1s-1-0.4-1-1C20.7-16.1,21.2-16.5,21.7-16.5z"/>
		<path d="M16.9-8.9v0.4c0,0.6-0.4,1-1,1c-0.6,0-1-0.4-1-1v-0.4c0-0.6,0.4-1,1-1C16.4-9.9,16.9-9.5,16.9-8.9z"/>
		<path d="M16.5-4.8v0.2c0,0.6-0.4,1-1,1c-0.6,0-1-0.4-1-1v-0.2c0-0.6,0.4-1,1-1C16-5.8,16.5-5.3,16.5-4.8z"/>
		<path d="M15.5-2c0.6,0,1,0.4,1,1s-0.4,1-1,1c-0.6,0-1-0.4-1-1S14.9-2,15.5-2z"/>
		<path d="M10.6-2c0.6,0,1,0.4,1,1s-0.4,1-1,1s-1-0.4-1-1S10-2,10.6-2z"/>
		<path d="M10.4-4.7c0.6,0,1,0.4,1,1s-0.4,1-1,1s-1-0.4-1-1S9.8-4.7,10.4-4.7z"/>
		<path d="M7.4-6.2c0.6,0,1,0.4,1,1s-0.4,1-1,1s-1-0.4-1-1S6.8-6.2,7.4-6.2z"/>
		<path d="M11.9-7.1h0.4c0.6,0,1,0.4,1,1s-0.4,1-1,1h-0.4c-0.6,0-1-0.4-1-1S11.3-7.1,11.9-7.1z"/>
		<path d="M13.3-11l0.6-1.3c0.3-0.5,0.9-0.6,1.4-0.4c0,0,0,0,0,0c0.5,0.3,0.6,0.9,0.4,1.4c0,0,0,0,0,0L15-10
			c-0.3,0.5-0.9,0.6-1.4,0.4c0,0,0,0,0,0C13.2-9.9,13-10.5,13.3-11z"/>
		<path d="M18.4-19.3v-0.2c0-0.6,0.4-1,1-1s1,0.4,1,1v0.2c0,0.6-0.4,1-1,1S18.4-18.8,18.4-19.3z"/>
		<path d="M20.7-24.9l0.2-0.4c0.6-1.1,2.3-0.1,1.7,1l-0.2,0.4C21.8-22.8,20.1-23.8,20.7-24.9z"/>
		<path d="M22.1-29.4c-0.5-0.5-0.8-1.1-0.8-1.9c0-0.6,0.4-1,1-1s1,0.4,1,1c0,0.2,0.1,0.3,0.3,0.4c0.4,0.4,0.4,1,0,1.4c0,0,0,0,0,0
			C23.2-29,22.5-29,22.1-29.4z"/>
		<path d="M20.3-33.4l-0.5-1.7c-0.4-1.2,1.5-1.8,1.9-0.5l0.5,1.7C22.6-32.7,20.7-32.2,20.3-33.4z"/>
		<path d="M19.4-37h-0.2c-0.6,0-1-0.4-1-1s0.4-1,1-1h0.2c0.6,0,1,0.4,1,1S20-37,19.4-37z"/>
		<path d="M17.6-41.5l-0.2-0.4c-0.6-1.2,1.1-2.2,1.7-1l0.2,0.4C19.9-41.3,18.2-40.3,17.6-41.5z"/>
		<path d="M15.8-47.9v-0.6c0-0.6,0.4-1,1-1c0.6,0,1,0.4,1,1v0.6c0,0.6-0.4,1-1,1S15.8-47.3,15.8-47.9z"/>
		<path d="M14.3-49.4c0.6,0,1,0.4,1,1s-0.4,1-1,1s-1-0.4-1-1S13.8-49.4,14.3-49.4z"/>
		<path d="M14.3-41.3c0.6,0,1,0.4,1,1s-0.4,1-1,1s-1-0.4-1-1S13.8-41.3,14.3-41.3z"/>
		<path d="M17.1-36.5c0.6,0.3,1,1,1,1.6c0,0.6-0.4,1-1,1s-1-0.4-1-1c0,0.1,0.2,0.2,0,0.1C15-35.3,16-37,17.1-36.5z"/>
		<path d="M17.4-31.3c0.6,0,1,0.4,1,1s-0.4,1-1,1s-1-0.4-1-1S16.8-31.3,17.4-31.3z"/>
		<path d="M18.1-28.5c0.6,0,1,0.4,1,1s-0.4,1-1,1s-1-0.4-1-1S17.6-28.5,18.1-28.5z"/>
		<path d="M19-24.9l0.2,0.4c0.6,1.1-1.1,2.2-1.7,1l-0.2-0.4C16.7-25.1,18.4-26.1,19-24.9z"/>
		<path d="M17.9-16c0.6,0,1,0.4,1,1s-0.4,1-1,1s-1-0.4-1-1S17.4-16,17.9-16z"/>
		<path d="M24.6-16l0.6-0.9c0.3-0.4,1-0.5,1.4-0.2c0.4,0.3,0.5,0.8,0.3,1.2l-0.6,1c-0.3,0.5-0.9,0.6-1.4,0.3
			C24.6-15,24.4-15.5,24.6-16L24.6-16z"/>
		<path d="M34.9-29.7v-0.2c0-0.6,0.4-1,1-1s1,0.4,1,1v0.2c0,0.6-0.4,1-1,1S34.9-29.2,34.9-29.7z"/>
		<path d="M24-39.2c0.6,0,1,0.4,1,1s-0.4,1-1,1s-1-0.4-1-1S23.5-39.2,24-39.2z"/>
		<path d="M22.9-29c0.6,0,1,0.4,1,1s-0.4,1-1,1s-1-0.4-1-1S22.3-29,22.9-29z"/>
		<path d="M18.2-21.9l0.6,0.6c0.9,0.9-0.5,2.3-1.4,1.4l-0.6-0.6C15.9-21.4,17.3-22.8,18.2-21.9z"/>
	</g>
</pattern>
<title>contact us</title>
<g class="st1">
	<ellipse class="st2" cx="721.4" cy="471.4" rx="11.4" ry="14.9"/>
	<path class="st2" d="M730.4,407.6c1.6-2.8,2.4-5.9,2.4-9.1c0-8.2-5.1-14.9-11.4-14.9s-11.4,6.7-11.4,14.9c0,3.2,0.8,6.3,2.4,9.1
		c-3.2,5.7-3.2,12.6,0,18.2c-3.2,5.7-3.2,12.6,0,18.2c-1.6,2.8-2.4,5.9-2.4,9.1c0,8.2,5.1,14.9,11.4,14.9s11.4-6.7,11.4-14.9
		c0-3.2-0.8-6.3-2.4-9.1c3.2-5.7,3.2-12.6,0-18.2C733.6,420.2,733.6,413.3,730.4,407.6L730.4,407.6z"/>
	<ellipse class="st2" cx="721.4" cy="380.3" rx="11.4" ry="14.9"/>
	<ellipse class="st2" cx="721.4" cy="362.1" rx="11.4" ry="14.9"/>
	<path class="st3" d="M678.8,237.5c-1.6-2-3-4.1-4.2-6.2l29.9-4.9l-32.3,0.2c-6.3-13.7-6.6-29.3-1-43.2l43.4,22.5l-40-29.4
		c14.9-26.2,48.2-35.3,74.4-20.4c26.2,14.9,35.3,48.2,20.4,74.4c-1.4,2.5-3,4.8-4.8,7.1c2.4,3.1,4.5,6.4,6.2,9.9l-38.8,20.2
		l41.4-13.9c5.9,17.5,2.6,36.7-8.8,51.2c18.6,23.7,14.5,57.9-9.1,76.6c-23.7,18.6-57.9,14.5-76.6-9.1c-15.6-19.8-15.6-47.6,0-67.4
		C663.3,285.2,663.3,257.3,678.8,237.5L678.8,237.5z"/>
	<path class="st4" d="M776.2,271.2c0,12.2-4.1,24.1-11.7,33.7c18.6,23.7,14.5,57.9-9.1,76.6c-23.7,18.6-57.9,14.5-76.6-9.1
		c-15.6-19.8-15.6-47.6,0-67.4C671.5,295.6,776.2,265.1,776.2,271.2z"/>
</g>
<g class="st1">
	<ellipse class="st2" cx="854.3" cy="439.5" rx="8.5" ry="11.1"/>
	<path class="st2" d="M861,391.9c1.2-2.1,1.8-4.4,1.8-6.8c0-6.1-3.8-11.1-8.5-11.1s-8.5,5-8.5,11.1c0,2.4,0.6,4.7,1.8,6.8
		c-2.4,4.2-2.4,9.4,0,13.6c-2.4,4.2-2.4,9.4,0,13.6c-1.2,2.1-1.8,4.4-1.8,6.8c0,6.1,3.8,11.1,8.5,11.1s8.5-5,8.5-11.1
		c0-2.4-0.6-4.7-1.8-6.8c2.4-4.2,2.4-9.4,0-13.6C863.4,401.3,863.4,396.1,861,391.9z"/>
	<ellipse class="st2" cx="854.3" cy="371.5" rx="8.5" ry="11.1"/>
	<ellipse class="st2" cx="854.3" cy="357.9" rx="8.5" ry="11.1"/>
	<path class="st3" d="M822.4,264.7c-1.2-1.5-2.2-3-3.2-4.7l22.3-3.7l-24.2,0.2c-4.7-10.2-5-21.9-0.8-32.3l32.4,16.8l-29.9-22
		c11.2-19.5,36.2-26.2,55.7-15c19.5,11.2,26.2,36.2,15,55.7c-1,1.7-2.1,3.3-3.3,4.9c1.8,2.3,3.4,4.8,4.7,7.4l-29,15.1l30.9-10.4
		c4.4,13,1.9,27.4-6.6,38.3c13.9,17.7,10.9,43.3-6.8,57.2c-17.7,13.9-43.3,10.9-57.2-6.8c-11.7-14.8-11.7-35.6,0-50.4
		C810.9,300.3,810.9,279.5,822.4,264.7L822.4,264.7z"/>
	<path class="st4" d="M895.2,289.9c0,9.1-3.1,18-8.7,25.2c13.9,17.7,10.9,43.3-6.8,57.2c-17.7,13.9-43.3,10.9-57.2-6.8
		c-11.7-14.8-11.7-35.6,0-50.4C817,308.2,895.2,285.4,895.2,289.9z"/>
</g>
<g class="st1">
	<ellipse class="st2" cx="1280.6" cy="431.4" rx="11.4" ry="14.9"/>
	<path class="st2" d="M1271.6,367.6c-1.6-2.8-2.4-5.9-2.4-9.1c0-8.2,5.1-14.9,11.4-14.9s11.4,6.7,11.4,14.9c0,3.2-0.8,6.3-2.4,9.1
		c3.2,5.7,3.2,12.6,0,18.2c3.2,5.7,3.2,12.6,0,18.2c1.6,2.8,2.4,5.9,2.4,9.1c0,8.2-5.1,14.9-11.4,14.9s-11.4-6.7-11.4-14.9
		c0-3.2,0.8-6.3,2.4-9.1c-3.2-5.7-3.2-12.6,0-18.2C1268.4,380.2,1268.4,373.3,1271.6,367.6z"/>
	<ellipse class="st2" cx="1280.6" cy="340.3" rx="11.4" ry="14.9"/>
	<ellipse class="st2" cx="1280.6" cy="322.1" rx="11.4" ry="14.9"/>
	<path class="st3" d="M1323.2,197.5c1.6-2,3-4.1,4.2-6.2l-29.9-4.9l32.3,0.2c6.3-13.7,6.6-29.3,1-43.2l-43.4,22.5l40-29.4
		c-14.9-26.2-48.2-35.3-74.4-20.4c-26.2,14.9-35.3,48.2-20.4,74.4c1.4,2.5,3,4.8,4.8,7.1c-2.4,3.1-4.5,6.4-6.2,9.9l38.8,20.2
		l-41.4-13.9c-5.9,17.5-2.6,36.7,8.8,51.2c-18.6,23.7-14.5,57.9,9.1,76.6s57.9,14.5,76.6-9.1c15.6-19.8,15.6-47.6,0-67.4
		C1338.7,245.2,1338.7,217.3,1323.2,197.5L1323.2,197.5z"/>
	<path class="st4" d="M1225.8,231.2c0,12.2,4.1,24.1,11.7,33.7c-18.6,23.7-14.5,57.9,9.1,76.6s57.9,14.5,76.6-9.1
		c15.6-19.8,15.6-47.6,0-67.4C1330.5,255.6,1225.8,225.1,1225.8,231.2z"/>
</g>
<g class="st1">
	<ellipse class="st2" cx="1170.7" cy="433.5" rx="8.5" ry="11.1"/>
	<path class="st2" d="M1164,385.9c-1.2-2.1-1.8-4.4-1.8-6.8c0-6.1,3.8-11.1,8.5-11.1s8.5,5,8.5,11.1c0,2.4-0.6,4.7-1.8,6.8
		c2.4,4.2,2.4,9.4,0,13.6c2.4,4.2,2.4,9.4,0,13.6c1.2,2.1,1.8,4.4,1.8,6.8c0,6.1-3.8,11.1-8.5,11.1s-8.5-5-8.5-11.1
		c0-2.4,0.6-4.7,1.8-6.8c-2.4-4.2-2.4-9.4,0-13.6C1161.6,395.3,1161.6,390.1,1164,385.9z"/>
	<ellipse class="st2" cx="1170.7" cy="365.5" rx="8.5" ry="11.1"/>
	<ellipse class="st2" cx="1170.7" cy="351.9" rx="8.5" ry="11.1"/>
	<path class="st3" d="M1202.6,258.7c1.2-1.5,2.2-3,3.2-4.7l-22.3-3.7l24.2,0.2c4.7-10.2,5-21.9,0.8-32.3l-32.4,16.8l29.9-22
		c-11.2-19.5-36.2-26.2-55.7-15c-19.5,11.2-26.2,36.2-15,55.7c1,1.7,2.1,3.3,3.3,4.9c-1.8,2.3-3.4,4.8-4.7,7.4l29,15.1l-30.9-10.4
		c-4.4,13-1.9,27.4,6.6,38.3c-13.9,17.7-10.9,43.3,6.8,57.2c17.7,13.9,43.3,10.9,57.2-6.8c11.7-14.8,11.7-35.6,0-50.4
		C1214.2,294.3,1214.2,273.5,1202.6,258.7L1202.6,258.7z"/>
	<path class="st4" d="M1129.8,283.9c0,9.1,3.1,18,8.7,25.2c-13.9,17.7-10.9,43.3,6.8,57.2c17.7,13.9,43.3,10.9,57.2-6.8
		c11.7-14.8,11.7-35.6,0-50.4C1208,302.2,1129.8,279.4,1129.8,283.9z"/>
</g>
<g class="st1">
	<ellipse class="st2" cx="303.6" cy="431.4" rx="11.4" ry="14.9"/>
	<path class="st2" d="M312.6,367.6c1.6-2.8,2.4-5.9,2.4-9.1c0-8.2-5.1-14.9-11.4-14.9s-11.4,6.7-11.4,14.9c0,3.2,0.8,6.3,2.4,9.1
		c-3.2,5.7-3.2,12.6,0,18.2c-3.2,5.7-3.2,12.6,0,18.2c-1.6,2.8-2.4,5.9-2.4,9.1c0,8.2,5.1,14.9,11.4,14.9s11.4-6.7,11.4-14.9
		c0-3.2-0.8-6.3-2.4-9.1c3.2-5.7,3.2-12.6,0-18.2C315.8,380.2,315.8,373.3,312.6,367.6L312.6,367.6z"/>
	<ellipse class="st2" cx="303.6" cy="340.3" rx="11.4" ry="14.9"/>
	<ellipse class="st2" cx="303.6" cy="322.1" rx="11.4" ry="14.9"/>
	<path class="st3" d="M261,197.5c-1.6-2-3-4.1-4.2-6.2l29.9-4.9l-32.4,0.3c-6.3-13.7-6.6-29.3-1-43.2l43.4,22.5l-40-29.4
		c14.9-26.1,48.3-35.2,74.4-20.3c26.1,14.9,35.2,48.3,20.3,74.4c-1.4,2.4-2.9,4.7-4.7,6.9c2.4,3.1,4.5,6.4,6.2,9.9l-38.8,20.2
		l41.4-13.9c5.9,17.5,2.6,36.7-8.8,51.2c18.6,23.7,14.5,57.9-9.1,76.6s-57.9,14.5-76.6-9.1c-15.6-19.8-15.6-47.6,0-67.4
		C245.4,245.2,245.4,217.3,261,197.5L261,197.5z"/>
	<path class="st4" d="M358.4,231.2c0,12.2-4.1,24.1-11.7,33.7c18.6,23.7,14.5,57.9-9.1,76.6s-57.9,14.5-76.6-9.1
		c-15.6-19.8-15.6-47.6,0-67.4C253.7,255.6,358.4,225.1,358.4,231.2z"/>
</g>
<g class="st1">
	<ellipse class="st2" cx="413.4" cy="433.5" rx="8.5" ry="11.1"/>
	<path class="st2" d="M420.2,385.9c1.2-2.1,1.8-4.4,1.8-6.8c0-6.1-3.8-11.1-8.5-11.1s-8.5,5-8.5,11.1c0,2.4,0.6,4.7,1.8,6.8
		c-2.4,4.2-2.4,9.4,0,13.6c-2.4,4.2-2.4,9.4,0,13.6c-1.2,2.1-1.8,4.4-1.8,6.8c0,6.1,3.8,11.1,8.5,11.1s8.5-5,8.5-11.1
		c0-2.4-0.6-4.7-1.8-6.8c2.4-4.2,2.4-9.4,0-13.6C422.5,395.3,422.5,390.1,420.2,385.9z"/>
	<ellipse class="st2" cx="413.4" cy="365.5" rx="8.5" ry="11.1"/>
	<ellipse class="st2" cx="413.4" cy="351.9" rx="8.5" ry="11.1"/>
	<path class="st3" d="M381.6,258.7c-1.2-1.5-2.2-3-3.2-4.7l22.4-3.7l-24.2,0.2c-4.7-10.2-5-21.9-0.8-32.3l32.4,16.8l-29.9-22
		c11.2-19.5,36.2-26.2,55.7-14.9c19.5,11.2,26.2,36.2,14.9,55.7c-1,1.7-2.1,3.3-3.3,4.9c1.8,2.3,3.4,4.8,4.6,7.4l-29,15.1l30.9-10.4
		c4.4,13,1.9,27.4-6.6,38.3c13.9,17.7,10.9,43.3-6.8,57.2c-17.7,13.9-43.3,10.9-57.2-6.8c-11.7-14.8-11.7-35.6,0-50.4
		C370,294.3,370,273.5,381.6,258.7L381.6,258.7z"/>
	<path class="st4" d="M454.4,283.9c0,9.1-3.1,18-8.7,25.2c13.9,17.7,10.9,43.3-6.8,57.2c-17.7,13.9-43.3,10.9-57.2-6.8
		c-11.7-14.8-11.7-35.6,0-50.4C376.1,302.2,454.4,279.4,454.4,283.9z"/>
</g>
<ellipse class="st5" cx="790" cy="602.4" rx="548" ry="8.9"/>
<ellipse class="st5" cx="790" cy="675.1" rx="548" ry="8.9"/>
<ellipse class="st5" cx="790" cy="450.6" rx="548" ry="8.9"/>
<ellipse class="st5" cx="790" cy="526.5" rx="548" ry="8.9"/>
<path class="st5" d="M1050.8,219.6c-3.6-0.7-7.3-0.3-10.6,1.2c-4.1,1.8-8.7,1.8-12.7,0c-4.8-2.1-10.3-2-15,0.3
	c-1.3,0.7-2.8,1.1-4.3,1.1c-6.1,0-11.1-6.1-12.2-14.2c1.2-0.9,2.2-2,3-3.3c3.6-5.7,9.1-9.4,15.3-9.4s11.6,3.6,15.2,9.3
	c2.2,3.5,6,5.6,10.1,5.5h0.2C1044.6,210.1,1048.8,214,1050.8,219.6z"/>
<path class="st5" d="M1069.3,194.3l-9.8,6.2l6-10.8c-1.7-1.3-3.8-2.1-5.9-2.1h-0.2c-0.7,0-1.3,0-2-0.1l-3.4,2.1l1.4-2.6
	c-2.4-0.8-4.4-2.4-5.8-4.4l-6,3.8l3.8-6.8c-3.5-4.2-8.2-6.7-13.3-6.7c-6.2,0-11.7,3.7-15.3,9.4c-2.1,3.5-6,5.6-10.1,5.4h-0.3
	c-6.8,0-12.4,7.8-12.4,17.3c0,9.6,5.5,17.3,12.4,17.3c1.5,0,3-0.4,4.3-1.1c4.7-2.3,10.2-2.4,15-0.3c4.1,1.8,8.7,1.8,12.7,0
	c4.8-2.1,10.2-2,14.9,0.3c1.3,0.7,2.8,1.1,4.3,1.1c6.8,0,12.4-7.8,12.4-17.3C1071.9,201.2,1071,197.5,1069.3,194.3z"/>
<path class="st5" d="M633.3,214.2c-2.5-0.5-5.1-0.2-7.4,0.8c-2.8,1.3-6.1,1.3-8.9,0c-3.4-1.5-7.2-1.4-10.5,0.2c-0.9,0.5-2,0.7-3,0.8
	c-4.3,0-7.8-4.3-8.5-9.9c0.8-0.6,1.6-1.4,2.1-2.3c2.5-4,6.3-6.6,10.7-6.6s8.1,2.6,10.6,6.5c1.5,2.4,4.2,3.9,7.1,3.9h0.1
	C628.9,207.6,631.8,210.3,633.3,214.2z"/>
<path class="st5" d="M646.2,196.5l-6.9,4.4l4.2-7.6c-1.2-0.9-2.6-1.5-4.2-1.5h-0.1c-0.5,0-1,0-1.4-0.1l-2.3,1.5l1-1.8
	c-1.7-0.6-3.1-1.7-4.1-3.1l-4.2,2.6l2.6-4.8c-2.2-2.9-5.7-4.6-9.3-4.7c-4.3,0-8.2,2.6-10.7,6.6c-1.5,2.4-4.2,3.9-7.1,3.8h-0.2
	c-4.8,0-8.7,5.4-8.7,12.1s3.9,12.1,8.7,12.1c1,0,2.1-0.3,3-0.8c3.3-1.6,7.1-1.7,10.5-0.2c1.4,0.6,2.9,1,4.5,1c1.5,0,3-0.3,4.4-0.9
	c3.3-1.4,7.1-1.4,10.4,0.2c0.9,0.5,2,0.7,3,0.7c4.8,0,8.7-5.4,8.7-12.1C648.1,201.3,647.4,198.8,646.2,196.5z"/>
<path class="st5" d="M511.6,292.6c2.5-0.5,5.1-0.2,7.4,0.8c2.8,1.3,6.1,1.3,8.9,0c3.4-1.5,7.2-1.4,10.5,0.2c0.9,0.5,2,0.8,3,0.8
	c4.3,0,7.8-4.3,8.5-9.9c-0.8-0.6-1.6-1.4-2.1-2.3c-2.5-4-6.4-6.6-10.7-6.6s-8.2,2.5-10.7,6.5c-1.5,2.4-4.2,3.9-7.1,3.9h-0.1
	C515.9,286,513,288.7,511.6,292.6z"/>
<path class="st5" d="M498.6,274.9l6.9,4.4l-4.2-7.6c1.2-0.9,2.6-1.5,4.2-1.5h0.1c0.5,0,1,0,1.4-0.1l2.3,1.5l-1-1.8
	c1.6-0.6,3.1-1.7,4.1-3.1l4.2,2.6l-2.6-4.8c2.2-2.9,5.7-4.6,9.3-4.7c4.3,0,8.2,2.6,10.7,6.6c1.5,2.4,4.2,3.9,7.1,3.8h0.2
	c4.8,0,8.7,5.4,8.7,12.1s-3.9,12.1-8.7,12.1c-1,0-2.1-0.3-3-0.8c-3.3-1.6-7.1-1.7-10.5-0.2c-1.4,0.6-2.9,1-4.5,1
	c-1.5,0-3-0.3-4.4-0.9c-3.3-1.4-7.1-1.4-10.4,0.2c-0.9,0.5-2,0.7-3,0.7c-4.8,0-8.7-5.4-8.7-12.1
	C496.8,279.8,497.4,277.2,498.6,274.9z"/>
<path class="st6" d="M906.3,599.5c2.6-4.8-0.3-10.8-3.8-15.1s-7.6-8.8-7.5-14.3c0.1-7.9,8.5-12.6,15.2-16.7c5-3.1,9.6-6.8,13.7-11
	c1.7-1.6,3.1-3.5,4.2-5.6c1.4-3.1,1.3-6.6,1.3-10c-0.3-11.3-0.8-22.5-1.7-33.8"/>
<path class="st3" d="M940.5,492.5c-0.2-4.2-2.5-8-6.2-10.1l-2.8,5.5l0.1-6.6c-6.5-1.9-13.4,1.8-15.3,8.3c-1.9,6.5,1.8,13.4,8.3,15.3
	c6.5,1.9,13.4-1.8,15.3-8.3C940.3,495.2,940.5,493.8,940.5,492.5z"/>
<path class="st3" d="M918.5,575.8c-3.1,6-10.5,8.4-16.6,5.3c-3.9-2-6.4-5.9-6.7-10.3c-0.1-1.7,0.2-3.4,0.8-5c2.5-6.3,9.6-9.5,16-7
	c3.2,1.3,5.8,3.9,7,7.1l-7.7,6.3l8.5-2C919.8,572.1,919.4,574.1,918.5,575.8z"/>
<path class="st3" d="M912.4,551.9c-6.8,0.3-12.6-4.9-12.9-11.7c-0.3-5.7,3.5-10.9,9-12.4l-0.1,5.1l2.8-5.5l0,0
	c6.8-0.3,12.6,4.9,12.9,11.7S919.2,551.6,912.4,551.9L912.4,551.9z"/>
<path class="st3" d="M942.3,532c-6.8,0.4-12.6-4.9-12.9-11.7c-0.4-6.8,4.9-12.6,11.7-12.9c2.3-0.1,4.7,0.4,6.7,1.6l-2.2,6l4.4-4.4
	c5,4.6,5.3,12.4,0.8,17.4C948.6,530.4,945.5,531.8,942.3,532L942.3,532z"/>
<path class="st4" d="M938.8,495.8c-2.8,0.3-5.6,1.2-8.5,1.4s-6-0.5-7.8-2.7c-0.8-1.3-1.6-2.6-2.3-4c-0.8-1.2-1.8-2.2-3.1-2.9
	c-3.1,6.1-0.7,13.5,5.4,16.6c6.1,3.1,13.5,0.7,16.6-5.4c0.5-1,0.8-2,1.1-3C939.7,495.7,939.3,495.7,938.8,495.8z"/>
<path class="st4" d="M942.3,532c-6.8,0.3-12.6-4.9-12.9-11.7c-0.1-2,0.3-4,1.2-5.8c1,0.7,1.8,1.5,2.5,2.5c0.7,1.4,1.6,2.8,2.4,4.1
	c1.9,2.3,5.2,3,8.2,2.8s5.8-1,8.8-1.3c0.4,0,0.8-0.1,1.2-0.1C952.5,527.9,947.8,531.8,942.3,532z"/>
<path class="st4" d="M912.4,551.9c-6.8,0.3-12.6-4.9-12.9-11.7c-0.1-1.9,0.3-3.8,1.1-5.6c1,0.7,1.9,1.5,2.6,2.5
	c0.8,1.4,1.7,2.8,2.7,4.2c2.1,2.3,5.6,3.1,8.7,3s6-0.8,9-1C922.1,548.2,917.6,551.6,912.4,551.9z"/>
<path class="st4" d="M918.5,575.8c-3.1,6-10.5,8.4-16.6,5.3c-3.9-2-6.4-5.9-6.7-10.3c-0.1-1.7,0.2-3.4,0.8-5c1,0.7,1.9,1.5,2.7,2.4
	c1.2,1.4,1.9,3,3.3,4.4c2.5,2.5,6.6,3.5,10.2,3.6C914.3,576.2,916.4,576,918.5,575.8z"/>
<path class="st6" d="M296.3,527.5c2.6-4.8-0.4-10.8-3.8-15.1s-7.6-8.8-7.5-14.3c0.1-7.9,8.5-12.6,15.2-16.7c5-3.1,9.6-6.8,13.7-11
	c1.7-1.6,3.1-3.5,4.2-5.6c1.4-3.1,1.3-6.6,1.3-10c-0.3-11.3-0.9-22.5-1.7-33.8"/>
<path class="st3" d="M330.5,420.5c-0.2-4.2-2.5-8-6.2-10.1l-2.8,5.5l0.1-6.6c-6.5-1.9-13.4,1.8-15.3,8.3c-1.9,6.5,1.8,13.4,8.3,15.3
	c6.5,1.9,13.4-1.8,15.3-8.3C330.3,423.2,330.5,421.8,330.5,420.5L330.5,420.5z"/>
<path class="st3" d="M308.5,503.8c-3.1,6-10.5,8.4-16.6,5.3c-3.9-2-6.4-5.9-6.7-10.3c-0.1-1.7,0.2-3.4,0.8-5c2.5-6.3,9.6-9.5,16-7
	c3.2,1.3,5.8,3.9,7,7.1l-7.7,6.3l8.5-2C309.8,500.1,309.4,502.1,308.5,503.8z"/>
<path class="st3" d="M302.4,479.9c-6.8,0.3-12.6-4.9-12.9-11.7c-0.3-5.7,3.5-10.9,9-12.4l-0.1,5.1l2.8-5.5l0,0
	c6.8-0.3,12.6,4.9,12.9,11.7S309.2,479.6,302.4,479.9L302.4,479.9z"/>
<path class="st3" d="M332.3,460c-6.8,0.4-12.6-4.9-12.9-11.7c-0.4-6.8,4.9-12.6,11.7-12.9c2.3-0.1,4.7,0.4,6.7,1.6l-2.2,6l4.4-4.4
	c5,4.6,5.3,12.4,0.8,17.4C338.6,458.4,335.5,459.8,332.3,460L332.3,460z"/>
<path class="st4" d="M328.8,423.8c-2.8,0.3-5.6,1.2-8.5,1.4s-6-0.5-7.8-2.7c-0.8-1.3-1.6-2.6-2.3-4c-0.8-1.2-1.8-2.2-3.1-2.9
	c-3.1,6.1-0.7,13.5,5.4,16.6c6.1,3.1,13.5,0.7,16.6-5.4c0.5-1,0.8-2,1.1-3C329.7,423.7,329.3,423.7,328.8,423.8z"/>
<path class="st4" d="M332.3,460c-6.8,0.3-12.6-4.9-12.9-11.7c-0.1-2,0.3-4,1.2-5.8c1,0.7,1.8,1.5,2.5,2.5c0.7,1.4,1.6,2.8,2.4,4.1
	c1.9,2.3,5.2,3,8.2,2.9c3-0.1,5.8-1,8.8-1.3c0.4,0,0.8-0.1,1.2-0.1C342.5,455.9,337.8,459.8,332.3,460z"/>
<path class="st4" d="M302.4,479.9c-6.8,0.3-12.6-4.9-12.9-11.7c-0.1-1.9,0.3-3.8,1.1-5.6c1,0.7,1.9,1.5,2.6,2.5
	c0.8,1.4,1.7,2.8,2.7,4.2c2.1,2.3,5.6,3.1,8.7,3c3.1-0.1,6-0.8,9-1C312.1,476.2,307.6,479.6,302.4,479.9z"/>
<path class="st4" d="M308.5,503.8c-3.1,6-10.5,8.4-16.6,5.3c-3.9-2-6.4-5.9-6.7-10.3c-0.1-1.7,0.2-3.4,0.8-5c1,0.7,1.9,1.5,2.7,2.4
	c1.2,1.4,1.9,3,3.3,4.4c2.5,2.5,6.6,3.5,10.2,3.6C304.3,504.2,306.4,504,308.5,503.8z"/>
<path class="st6" d="M702.5,445.1c-2.6-4.8,0.3-10.8,3.8-15.1s7.5-8.8,7.5-14.3c-0.1-7.9-8.5-12.6-15.2-16.7c-5-3.1-9.5-6.8-13.6-11
	c-1.7-1.6-3.1-3.5-4.2-5.6c-1.4-3.1-1.3-6.6-1.3-10c0.3-11.3,0.9-22.5,1.7-33.8"/>
<path class="st3" d="M668.4,338.1c0.2-4.2,2.5-8,6.1-10.1l2.8,5.5l-0.1-6.6c1.3-0.4,2.7-0.5,4-0.5c6.8,0.3,12,6.1,11.7,12.9
	c-0.3,6.8-6.1,12-12.9,11.7C673.3,350.7,668.1,344.9,668.4,338.1L668.4,338.1z"/>
<path class="st3" d="M690.3,421.4c3.1,6,10.5,8.4,16.6,5.3c6-3.1,8.4-10.5,5.3-16.6c-3.1-6-10.5-8.4-16.6-5.3
	c-2.7,1.4-4.8,3.8-5.9,6.7l7.7,6.3l-8.5-2C689,417.8,689.4,419.7,690.3,421.4z"/>
<path class="st3" d="M696.4,397.5c6.8,0.3,12.6-4.9,12.9-11.7c0.3-5.7-3.4-10.9-9-12.4l0.1,5.1l-2.8-5.5l0,0
	c-6.8-0.3-12.6,4.9-12.9,11.7c-0.1,1.4,0.1,2.8,0.5,4.2C686.7,393.8,691.2,397.3,696.4,397.5z"/>
<path class="st3" d="M666.5,377.6c6.8,0.3,12.6-4.9,12.9-11.7c0.3-6.8-4.9-12.6-11.7-12.9c-2.3-0.1-4.7,0.4-6.7,1.6l2.2,6l-4.5-4.3
	c-2.4,2.2-3.9,5.2-4,8.5c-0.1,1.1,0,2.3,0.3,3.4C656.4,373.6,661.1,377.4,666.5,377.6z"/>
<path class="st4" d="M670,341.4c2.8,0.3,5.6,1.2,8.5,1.4s6-0.5,7.8-2.7c0.8-1.3,1.6-2.6,2.3-4c0.8-1.2,1.8-2.2,3.1-2.9
	c3.1,6.1,0.7,13.5-5.4,16.6c-6.1,3.1-13.5,0.7-16.6-5.4c-0.5-1-0.9-2-1.1-3C669.1,341.3,669.6,341.4,670,341.4z"/>
<path class="st4" d="M666.5,377.6c6.8,0.3,12.6-4.9,12.9-11.7c0.1-2-0.3-4-1.2-5.8c-1,0.7-1.8,1.5-2.5,2.5c-0.7,1.4-1.6,2.8-2.4,4.1
	c-1.9,2.3-5.2,3-8.2,2.9s-5.8-1-8.8-1.3c-0.4,0-0.8-0.1-1.2-0.1C656.4,373.5,661,377.4,666.5,377.6z"/>
<path class="st4" d="M696.4,397.5c6.8,0.3,12.6-4.9,12.9-11.7c0.1-1.9-0.3-3.9-1.1-5.6c-1,0.7-1.9,1.5-2.6,2.5
	c-0.8,1.4-1.7,2.8-2.7,4.1c-2.1,2.3-5.6,3.1-8.7,3c-3.2-0.1-6-0.8-9-1C686.8,393.8,691.2,397.3,696.4,397.5z"/>
<path class="st4" d="M690.3,421.4c3.1,6,10.6,8.4,16.6,5.3c5.5-2.9,8-9.4,5.9-15.3c-1,0.7-1.9,1.5-2.7,2.4c-1.2,1.4-2,3-3.3,4.4
	c-2.5,2.5-6.6,3.5-10.2,3.6C694.5,421.8,692.4,421.7,690.3,421.4z"/>
<circle class="st2" cx="1170.6" cy="343.6" r="100"/>
<path class="st3" d="M1213.5,369.4c-3.5-3.5-11.8-8.7-16-10.7c-4.8-2.3-6.5-2.3-9.9,0.2c-2.8,2-4.7,3.9-7.9,3.2s-9.7-5.5-15.9-11.7
	c-6.2-6.2-11-12.6-11.7-15.9c-0.7-3.3,1.2-5.1,3.2-7.9c2.4-3.4,2.5-5.1,0.2-9.9c-2-4.1-7.2-12.5-10.7-16s-4.3-2.7-6.2-2
	c-2,0.8-3.9,1.8-5.7,3c-3.5,2.3-5.4,4.3-6.8,7.2s-2.9,8.3,5,22.5c5.9,10.9,13.3,20.8,22.1,29.5l0,0l0,0c8.7,8.8,18.7,16.3,29.6,22.1
	c14.2,8,19.6,6.4,22.5,5s4.9-3.3,7.2-6.8c1.2-1.8,2.2-3.7,3-5.7C1216.2,373.6,1217,372.8,1213.5,369.4z"/>
<path class="st4" d="M1170.6,243.6c-55.2,0-100,44.7-100,100s44.7,100,99.9,100c55.2,0,100-44.7,100.1-100c0,0,0-0.1,0-0.1
	C1270.5,288.4,1225.8,243.7,1170.6,243.6z M1170.6,430.2c-47.9,0-86.7-38.8-86.7-86.7c0-47.9,38.8-86.7,86.7-86.7
	s86.7,38.8,86.7,86.7v0C1257.2,391.4,1218.4,430.2,1170.6,430.2L1170.6,430.2L1170.6,430.2z"/>
<g class="st1">
	<path d="M1004.5,596.9c0,0-9.9-0.3-12.9-0.8c0,0.5,0,0.8,0,0.8c-0.8,0.8,13.8,1.2,13.8,1.2c0.2,0,0.4,0.1,0.5,0.2
		C1005.4,596.9,1004.5,596.9,1004.5,596.9z"/>
	<path d="M1021.8,580.8c-0.4-0.4-0.8-5.9-0.8-5.9c-0.2,0.1-0.4,0.2-0.7,0.2c0.1,1.7,0.4,4.2,0.7,4.5s2,10.2,1.6,14.9s0,4.7,0,4.7
		s-12.8,1.9-15.8,0.6c0,0.2,0.1,0.4,0.1,0.6c0.4,2.4,16.5,0,16.5,0s-0.4,0,0-4.7S1022.2,581.2,1021.8,580.8z"/>
	
		<pattern  id="SVGID_1_" xlink:href="#ad310e25-2b04-44c8-bb7b-9823891" patternTransform="matrix(1 0 0 -1 -72.72 -16092.7695)"  class="st1">
	</pattern>
	<path class="st7" d="M1004.5,596.9c0,0-9.9-0.3-12.9-0.8c0,0.5,0,0.8,0,0.8c-0.8,0.8,13.8,1.2,13.8,1.2c0.2,0,0.4,0.1,0.5,0.2
		C1005.4,596.9,1004.5,596.9,1004.5,596.9z"/>
	
		<pattern  id="SVGID_2_" xlink:href="#ad310e25-2b04-44c8-bb7b-9823891" patternTransform="matrix(1 0 0 -1 -72.72 -16092.7695)"  class="st1">
	</pattern>
	<path class="st8" d="M1021.8,580.8c-0.4-0.4-0.8-5.9-0.8-5.9c-0.2,0.1-0.4,0.2-0.7,0.2c0.1,1.7,0.4,4.2,0.7,4.5s2,10.2,1.6,14.9
		s0,4.7,0,4.7s-12.8,1.9-15.8,0.6c0,0.2,0.1,0.4,0.1,0.6c0.4,2.4,16.5,0,16.5,0s-0.4,0,0-4.7S1022.2,581.2,1021.8,580.8z"/>
</g>
<path class="st9" d="M1002.4,553.3c-0.7,1.2-1,2.5-1,3.8c0,0.5,0.1,1.1,0.3,1.6c0.6,1.4,1.7,2.5,3.2,3"/>
<path class="st6" d="M1078.4,523.6c2.6-4.8-0.3-10.8-3.8-15.1s-7.5-8.8-7.5-14.3c0.1-7.9,8.5-12.5,15.2-16.7c5-3.1,9.5-6.8,13.6-11
	c1.7-1.6,3.1-3.5,4.2-5.6c1.4-3.1,1.3-6.6,1.3-10c-0.3-11.3-0.8-22.5-1.7-33.8"/>
<path class="st3" d="M1112.5,416.6c-0.2-4.2-2.5-8-6.1-10.1l-2.8,5.5l0.1-6.6c-1.3-0.4-2.7-0.6-4-0.5c-6.8,0.3-12,6.1-11.7,12.9
	c0.3,6.8,6.1,12,12.9,11.7C1107.6,429.1,1112.8,423.4,1112.5,416.6C1112.5,416.6,1112.5,416.6,1112.5,416.6L1112.5,416.6z"/>
<path class="st3" d="M1090.6,499.9c-3.1,6-10.5,8.4-16.6,5.3s-8.4-10.5-5.3-16.6c3.1-6,10.5-8.4,16.6-5.3c2.7,1.4,4.8,3.8,5.9,6.7
	l-7.7,6.3l8.5-2C1091.9,496.2,1091.5,498.1,1090.6,499.9z"/>
<path class="st3" d="M1084.5,476c-6.8,0.3-12.6-4.9-12.9-11.7c-0.3-5.7,3.4-10.9,9-12.4l-0.1,5.1l2.8-5.5l0,0
	c6.8-0.3,12.6,4.9,12.9,11.7C1096.5,469.9,1091.3,475.7,1084.5,476C1084.5,476,1084.5,476,1084.5,476L1084.5,476z"/>
<path class="st3" d="M1114.4,456.1c-6.8,0.3-12.6-4.9-12.9-11.7s4.9-12.6,11.7-12.9c2.3-0.1,4.7,0.4,6.7,1.6l-2.2,6l4.5-4.3
	c2.4,2.2,3.9,5.2,4,8.5c0.1,1.1,0,2.3-0.3,3.4C1124.5,452,1119.9,455.9,1114.4,456.1z"/>
<path class="st4" d="M1110.9,419.8c-2.8,0.3-5.6,1.2-8.5,1.4c-2.8,0.2-6-0.5-7.8-2.7c-0.8-1.3-1.6-2.6-2.3-4
	c-0.8-1.2-1.8-2.2-3.1-2.9c-3.1,6.1-0.7,13.5,5.4,16.6c6.1,3.1,13.5,0.7,16.6-5.4c0.5-1,0.9-2,1.1-3
	C1111.8,419.8,1111.3,419.8,1110.9,419.8z"/>
<path class="st4" d="M1114.4,456.1c-6.8,0.3-12.6-4.9-12.9-11.7c-0.1-2,0.3-4,1.2-5.8c1,0.7,1.8,1.5,2.5,2.5
	c0.7,1.4,1.5,2.8,2.4,4.1c1.9,2.3,5.2,3,8.2,2.9s5.8-1,8.8-1.3c0.4,0,0.8-0.1,1.2-0.1C1124.5,452,1119.9,455.8,1114.4,456.1z"/>
<path class="st4" d="M1084.5,476c-6.8,0.3-12.6-4.9-12.9-11.7c-0.1-1.9,0.3-3.9,1.1-5.7c1,0.7,1.9,1.5,2.6,2.5
	c1,1.3,1.5,2.9,2.7,4.2c2.1,2.3,5.6,3.1,8.7,3.1s6-0.8,9-1C1094.1,472.3,1089.7,475.7,1084.5,476z"/>
<path class="st4" d="M1090.6,499.9c-3.2,6-10.7,8.3-16.7,5.1c-5.4-2.9-7.9-9.3-5.8-15.1c1,0.7,1.9,1.5,2.7,2.4
	c1.2,1.4,1.9,3,3.3,4.4c2.5,2.5,6.6,3.5,10.2,3.6C1086.4,500.3,1088.5,500.1,1090.6,499.9z"/>
<path class="st6" d="M1237.4,675.6c2.6-4.8-0.3-10.8-3.8-15.1s-7.6-8.8-7.5-14.3c0.1-7.9,8.5-12.5,15.2-16.7c5-3.1,9.5-6.8,13.6-11
	c1.7-1.6,3.1-3.5,4.2-5.6c1.4-3.1,1.3-6.6,1.3-10c-0.3-11.3-0.8-22.5-1.7-33.8"/>
<path class="st3" d="M1271.5,568.6c-0.2-4.2-2.5-8-6.1-10.1l-2.8,5.5l0.1-6.6c-1.3-0.4-2.6-0.6-4-0.5c-6.8,0.3-12,6.1-11.7,12.9
	c0.3,6.8,6.1,12,12.9,11.7C1266.6,581.1,1271.9,575.4,1271.5,568.6C1271.6,568.6,1271.6,568.6,1271.5,568.6L1271.5,568.6z"/>
<path class="st3" d="M1249.6,651.9c-3.1,6-10.5,8.4-16.6,5.3c-6-3.1-8.4-10.5-5.3-16.6s10.5-8.4,16.6-5.3c2.7,1.4,4.8,3.8,5.9,6.7
	l-7.7,6.3l8.5-2C1250.9,648.2,1250.5,650.1,1249.6,651.9z"/>
<path class="st3" d="M1243.5,628c-6.8,0.3-12.6-4.9-12.9-11.7c-0.3-5.7,3.4-10.9,9-12.4l-0.1,5.1l2.8-5.5l0,0
	c6.8-0.3,12.6,4.9,12.9,11.7C1255.5,621.9,1250.3,627.7,1243.5,628C1243.5,628,1243.5,628,1243.5,628L1243.5,628z"/>
<path class="st3" d="M1273.4,608.1c-6.8,0.3-12.6-4.9-12.9-11.7c-0.3-6.8,4.9-12.6,11.7-12.9c2.3-0.1,4.7,0.4,6.7,1.6l-2.2,6
	l4.5-4.3c2.4,2.2,3.9,5.2,4,8.5c0.1,1.1,0,2.3-0.3,3.4C1283.5,604,1278.9,607.9,1273.4,608.1z"/>
<path class="st4" d="M1269.9,571.8c-2.8,0.3-5.6,1.2-8.5,1.4s-6-0.5-7.8-2.7c-0.8-1.3-1.6-2.6-2.3-4c-0.8-1.2-1.8-2.2-3.1-2.9
	c-3.1,6.1-0.7,13.5,5.4,16.6c6.1,3.1,13.5,0.7,16.6-5.4c0.5-1,0.9-2,1.1-3C1270.8,571.8,1270.3,571.8,1269.9,571.8z"/>
<path class="st4" d="M1273.4,608.1c-6.8,0.3-12.6-4.9-12.9-11.7c-0.1-2,0.3-4,1.2-5.8c1,0.7,1.8,1.5,2.5,2.5
	c0.7,1.4,1.5,2.8,2.4,4.1c1.9,2.3,5.2,3,8.2,2.9s5.8-1,8.8-1.3c0.4,0,0.8-0.1,1.2-0.1C1283.5,604,1278.9,607.8,1273.4,608.1z"/>
<path class="st4" d="M1243.5,628c-6.8,0.3-12.6-4.9-12.9-11.7c-0.1-1.9,0.3-3.9,1.1-5.7c1,0.7,1.9,1.5,2.6,2.5
	c1,1.3,1.6,2.9,2.7,4.2c2.1,2.3,5.6,3.1,8.7,3.1s6-0.8,9-1C1253.1,624.3,1248.7,627.7,1243.5,628z"/>
<path class="st4" d="M1249.6,651.9c-3.2,6-10.7,8.3-16.7,5.1c-5.4-2.9-7.9-9.3-5.8-15.1c1,0.7,1.9,1.5,2.7,2.4c1.2,1.4,2,3,3.3,4.4
	c2.5,2.5,6.6,3.5,10.2,3.6C1245.4,652.3,1247.5,652.1,1249.6,651.9z"/>
<g>
	<path class="st10" d="M362.4,590.9c0.6,1.9,1.3,3.8,2.2,5.7c2.5-0.5,4.9-1.2,7.3-2.1c-0.5-0.7-1-1.4-1.5-2c-0.6-0.6-1.3-1.2-2-1.6
		c-0.8-0.2-1.7-0.2-2.5,0C364.7,590.9,363.6,590.9,362.4,590.9z"/>
	<path class="st11" d="M368.3,593.8c-1.2-0.5-2.1-1.6-2.5-2.8c-0.4-1.2-1-2.4-1.9-3.4c-0.4,0.1-0.7,0.3-0.8,0.6
		c-0.2,0.3-0.3,0.7-0.5,1c-0.4,0.6-1.1,0.8-1.6,1.3s-0.8,1.2-1.3,1.7c-0.7,0.5-1.6,0.9-2.5,1c-1.4,0.3-2.7,0.8-4,1.5
		c-0.5,0.3-1,0.5-1.5,0.7c-0.6,0.1-1.1,0.1-1.7,0l-3.9-0.3c-0.3-0.1-0.7-0.1-1,0c-0.8,0.3-1.3,1.1-1.3,2c0.1,0.9,0.5,1.6,1.3,2.1
		c0.7,0.5,1.4,0.9,2.2,1.1c3.4,1.3,7,2.3,10.6,3v0.8c2.5,1.2,5.3,1.9,8,1.9c0.2,0,0.4,0,0.6-0.1c0.3-0.2,0.4-0.5,0.5-0.8
		c0.9-2.8,1.5-5.6,1.6-8.6c0.1-0.7,0-1.5-0.2-2.2C368.2,593.7,369,594,368.3,593.8"/>
	<path class="st10" d="M384.9,591.5c1.8,0.6,3.7,1.2,5.5,1.7c1-1.7,3-2.9,3.4-4.9c0-0.1,0-0.2,0-0.3c0-0.1-0.1-0.1-0.2-0.2
		c-1.3-0.7-2.8-1.2-4.3-1.3c-1.2-0.1-1.8,1.2-2.3,2.1C386.8,589,385.3,591.6,384.9,591.5z"/>
	<path class="st11" d="M387.4,590.2c-1.1-0.2-2.1-0.8-2.7-1.8c-0.3-0.5-0.5-1.1-1-1s-0.7,0.6-0.8,1.1c-0.3,1.8-0.9,3.5-1.5,5.2
		c-0.7,1.7-1.8,3.2-3.2,4.3c-0.7,0.5-1.4,0.8-2.1,1.3c-0.6,0.5-1.1,0.9-1.8,1.3c-0.4,0.2-0.9,0.4-1.4,0.5c-0.7,0.3-1.3,0.6-1.9,1
		c-0.5,0.3-1,0.7-1.3,1.3c-0.3,0.5-0.4,1.2-0.1,1.8c0.3,0.5,0.8,0.8,1.3,0.9c0.5,0.1,1.1,0.1,1.6,0c2.1-0.2,4.3-0.3,6.4-0.5
		c0.9-0.1,1.8-0.2,2.7-0.4l1.4-0.4c0.8-0.2,1.6-0.3,2.4-0.4c0.2,0,0.5,0,0.7,0.1c0.5,0.2,0.8,0.7,1.4,0.8c0.3,0,0.7,0,1-0.1
		c1.6-0.3,3.1-0.5,4.7-0.5c0.7,0,1.5-0.2,1.8-0.8c0.4-0.8-0.3-1.7-0.5-2.5c-0.1-0.5-0.2-1.1-0.2-1.6c-0.1-1.4-0.5-2.7-1.2-3.9
		c-0.5-1-1.3-2.1-0.9-3.2c0.2-0.3,0.3-0.7,0.4-1.1C392.3,589.8,388.4,590.5,387.4,590.2z"/>
	<ellipse class="st11" cx="450.1" cy="537.7" rx="2.8" ry="2.9"/>
	<ellipse class="st12" cx="451.9" cy="539.6" rx="2.2" ry="2.2"/>
	<path class="st10" d="M451.4,538c0.5,1,0.6,2.1,0.2,3.2c-0.3,1-0.8,2-1.4,2.9c-0.5,0.9-1.1,1.8-1.8,2.6c3.4,0.2,6.6-1.2,9.6-2.8
		c2.4-1.3,4.8-2.9,6.1-5.3c-0.8,0.2-1.6,0-2.2-0.4c-0.6-0.4-1.2-1-1.7-1.6l-1.7-1.9c-0.4-0.4-0.7-0.9-1-1.4
		c-0.4-0.7-0.5-1.4-0.5-2.2c-0.7,0.7-1.4,1.3-2.2,1.9c-1.2,0.8-2.5,1.4-3.8,2.1c-0.4,0.3-1.4,0.7-1.1,1.3S451.1,537.4,451.4,538z"/>
	<path class="st4" d="M451.4,538c0.5,1,0.6,2.1,0.2,3.2c-0.3,1-0.8,2-1.4,2.9c-0.5,0.9-1.1,1.8-1.8,2.6c3.4,0.2,6.6-1.2,9.6-2.8
		c2.4-1.3,4.8-2.9,6.1-5.3c-0.8,0.2-1.6,0-2.2-0.4c-0.6-0.4-1.2-1-1.7-1.6l-1.7-1.9c-0.4-0.4-0.7-0.9-1-1.4
		c-0.4-0.7-0.5-1.4-0.5-2.2c-0.7,0.7-1.4,1.3-2.2,1.9c-1.2,0.8-2.5,1.4-3.8,2.1c-0.4,0.3-1.4,0.7-1.1,1.3S451.1,537.4,451.4,538z"/>
	<circle class="st2" cx="550" cy="498.1" r="100"/>
	<path class="st3" d="M606.9,467.9l-29.9,30.5c-0.2,0.2-0.2,0.5,0,0.8c0,0,0,0,0,0l21,22.3c1.4,1.4,1.4,3.7,0,5.1
		c-0.7,0.7-1.6,1-2.5,1.1c-1,0-1.9-0.4-2.6-1.1l-20.9-22.3c-0.2-0.2-0.6-0.2-0.8,0l-5.1,5.1c-4.2,4.3-10,6.7-16,6.7
		c-6.1,0-12-2.5-16.3-6.9l-4.9-5c-0.2-0.2-0.6-0.2-0.8,0l-20.8,22.2c-1.4,1.4-3.7,1.4-5.1,0c0,0,0,0,0,0c-1.4-1.4-1.4-3.7,0-5.1
		c0,0,0,0,0,0l20.9-22.3c0.2-0.2,0.2-0.6,0-0.8l-29.9-30.5c-0.2-0.2-0.6-0.2-0.8,0c-0.1,0.1-0.2,0.2-0.2,0.4v60.9
		c0,4.9,4,8.9,8.9,8.9h97.9c4.9,0,8.9-4,8.9-8.9v-60.9c0-0.3-0.2-0.6-0.5-0.6C607.1,467.7,607,467.8,606.9,467.9z"/>
	<path class="st3" d="M550,509c4.1,0,8-1.6,10.9-4.5l43.6-44.4c-1.5-1.3-3.5-2-5.5-2h-97.9c-2,0-4,0.7-5.5,2l43.6,44.4
		C542,507.4,545.9,509,550,509z"/>
	<path class="st4" d="M548.8,398.1c-55.2,0-100,44.7-100,100c0,55.2,44.7,100,99.9,100c55.2,0,100-44.7,100-100c0,0,0-0.1,0-0.1
		C648.7,442.9,603.9,398.2,548.8,398.1z M548.8,584.8c-47.9,0-86.7-38.8-86.7-86.7c0-47.9,38.8-86.7,86.7-86.7
		c47.9,0,86.7,38.8,86.7,86.7l0,0C635.4,546,596.6,584.8,548.8,584.8z"/>
	
		<linearGradient id="SVGID_3_" gradientUnits="userSpaceOnUse" x1="462.8953" y1="25.7432" x2="462.8953" y2="126.7332" gradientTransform="matrix(1 0 0 -1 -52 631.89)">
		<stop  offset="0" style="stop-color:#808080;stop-opacity:0.25"/>
		<stop  offset="0.54" style="stop-color:#808080;stop-opacity:0.12"/>
		<stop  offset="1" style="stop-color:#808080;stop-opacity:0.1"/>
	</linearGradient>
	<path class="st13" d="M477.9,533.4c0-3.1-1.4-6-3.9-7.9c0-5.6-4.1-10.4-9.6-11.3c-0.8-4-3.8-7.3-7.6-8.5l0,0
		c-0.5-0.1-0.9-0.3-1.4-0.3h-0.1H455h-0.2h-0.2h-0.3h-0.6c-5.5,0.1-10.1,4.2-10.9,9.6c-3.5-0.8-6.7,0.2-7.3,2.5
		c-0.1,0.6-0.1,1.2,0.1,1.8c0.6,1.7,2.5,3.4,5.2,4.2l0.3,0.1l0.5,0.1h0.1l0,0c-0.6,1.2-0.8,2.5-0.8,3.8c0,3.3,1.8,6.3,4.7,7.8
		l-0.2,0.1c-0.3,0.3-0.6,0.7-0.8,1.1c-0.6,1.1-1.1,2.3-1.5,3.5c-0.3,1.1-0.3,2.2-0.6,3.2c-0.6,1.9-2.1,3.6-2.2,5.6
		c-0.1,0.9,0.1,2-0.6,2.6c-0.2,0.1-0.3,0.3-0.5,0.4c-0.4,0.3-0.8,0.7-1.1,1.2c-0.2,0.4-0.5,0.8-0.8,1.1c-0.6,0.4-1.5,0.4-1.8,1.1
		s0.5,1.5,0.3,2.2s-0.8,0.9-1.2,1.3c-0.5,0.6-0.9,1.3-1.1,2c-1.9,0.4-3.9-0.1-5.4-1.4c0.3,0.6,0.4,1.3,0.6,2
		c-0.9-0.7-1.9-1.2-2.9-1.5c-1.2-0.5-2.2-1.3-3.1-2.3l1.7-0.2l-7.3-11.2l-2.2-0.5l1.9,3.7c-0.3,0.1-0.6,0.4-0.7,0.8
		c-0.1,0.4-0.1,0.8-0.1,1.3c0.1,1,0.3,2,0.5,3l0.6,2.6c0,0.2,0.1,0.5,0.2,0.7c-0.7,0-1.5,0-2.2,0.2c-1.5-0.5-3-0.9-4.5-1.1
		c-0.3-0.1-0.7-0.1-1,0c-0.4,0.2-0.7,0.4-1,0.8c-1.3,1.5-2.4,3-3.4,4.7c-4,6.9-9.2,12.8-14.1,19c-3.4,1.4-6.8,2.7-10.3,4l-7.4,2.8
		c-1.4,0.7-3,1-4.6,1c-0.7,0-1.6-0.2-2,0.5c-0.2,0.3-0.3,0.6-0.5,1l-0.8,0.1l0,0c-0.3-1.2-1-2.3-1.8-3.3c-0.4,0.1-0.7,0.3-0.8,0.6
		c-0.2,0.3-0.3,0.7-0.5,1c-0.4,0.6-1.1,0.9-1.6,1.3s-0.8,1.3-1.3,1.8c-0.7,0.5-1.6,0.9-2.5,1c-1.4,0.3-2.7,0.8-3.9,1.5
		c-0.5,0.3-0.9,0.5-1.5,0.7c-0.6,0.1-1.1,0.1-1.7,0.1l-3.9-0.3c-0.4,0-0.7,0-1,0c-0.8,0.3-1.3,1.1-1.2,2c0.1,0.9,0.5,1.6,1.2,2.2
		c0.7,0.5,1.4,0.9,2.2,1.2c3.4,1.3,6.9,2.3,10.4,3.1v0.8c2.5,1.3,5.2,1.9,8,1.9c0.2,0,0.4,0,0.6-0.1c0.3-0.2,0.4-0.5,0.5-0.8
		c0.8-2.5,1.4-5.1,1.6-7.7l0,0c0.5,0,1-0.2,1.4-0.4c1.3-0.4,2.7,0.5,4.1,0.7c1.7,0.2,3.3-0.8,4.9-1.4l0.7-0.2
		c-0.5,0.6-1,1.1-1.6,1.5c-0.7,0.5-1.4,0.8-2.1,1.3c-0.6,0.5-1.1,1-1.8,1.4c-0.4,0.2-0.9,0.4-1.4,0.5c-0.7,0.3-1.3,0.6-1.9,1
		c-0.5,0.3-1,0.8-1.3,1.3c-0.3,0.5-0.4,1.2-0.1,1.8c0.3,0.5,0.8,0.8,1.3,0.9c0.5,0.1,1.1,0.1,1.6,0c2.1-0.2,4.2-0.3,6.3-0.5
		c0.9-0.1,1.8-0.2,2.6-0.4c0.5-0.1,0.9-0.3,1.4-0.4c0.8-0.2,1.6-0.3,2.4-0.4c0.2,0,0.5,0,0.7,0.1c0.5,0.2,0.8,0.7,1.3,0.8
		c0.3,0,0.7,0,1-0.1c1.5-0.3,3.1-0.5,4.7-0.5c0.7,0,1.5-0.2,1.8-0.8s-0.3-1.7-0.5-2.5c-0.1-0.5-0.2-1.1-0.2-1.7
		c-0.1-1.4-0.5-2.7-1.2-3.9c-0.3-0.6-0.6-1.2-0.9-1.8c3-1.1,5.9-2.6,8.6-4.4c1.5-1.1,3.2-1.9,4.9-2.4c2.1-0.2,4.2,0,6.2,0.7
		c4.8,1.4,9.5,3,14.2,4.9c2.2,0.9,4.4,1.9,6.7,2.6c0.7,0.9,1.5,1.7,2.4,2.3c1.6,0.9,3.3,1.4,5.1,1.4c2.4,0.2,4.8,0.3,7.3,0.3
		c1.9,0.1,3.7-0.3,5.4-1c0.4-0.2,0.8-0.5,1.1-0.8c1.3,0.1,2.6-0.4,3.6-1.3c1.3-1.1,2.3-2.6,2.7-4.3c0.6-2.3,0.1-5,1.5-6.8
		c0.4-0.5,0.9-0.9,1.2-1.4c0.4-0.7,0.7-1.5,0.6-2.3c0,0,0-0.1,0.1-0.1c0.3-0.7,0.5-1.5,0.6-2.3c0.2-0.6,0.4-1.2,0.7-1.8
		c0.7-1.8,1.3-3.6,1.9-5.4c0.4-1.2,0.6-2.5,0.9-3.7c0.2-1,0.2-2,0.3-3c0.1-1.6,0.4-3.1,0.9-4.6c1.3-3.6,2-7.3,2.1-11.1v-0.2
		c3.8-0.4,6.7-3.7,6.6-7.6c0-1.1-0.2-2.2-0.7-3.2C477.5,536.9,477.9,535.1,477.9,533.4z M442.2,576.8c0.1,0.4,0.2,0.8,0.4,1.2
		c-0.6-0.6-1.2-1.2-1.8-1.7c0.2,0.1,0.5,0.2,0.7,0.2C441.7,576.6,441.9,576.7,442.2,576.8L442.2,576.8z M439.3,574.9
		c-3.5-3-7.5-5.3-11-8.2c1.9,1,3.8,2.1,5.7,3.1c2.2,1.3,4.4,2.5,6.7,3.6C440.3,574,439.9,574.5,439.3,574.9L439.3,574.9z
		 M440.8,567.4l0.2-0.2c0,0.4,0,0.8,0,1.2l-0.9-0.3C440.3,567.8,440.5,567.6,440.8,567.4L440.8,567.4z M410.4,575.5
		c1.4-1.6,2.7-3.4,3.7-5.3c1.4,2.4,3.6,4.1,5.5,6.1C416.5,575.9,413.4,575.6,410.4,575.5z"/>
	<polygon class="st11" points="415.3,546.3 417.5,546.8 424.9,557.8 421.6,558.2 	"/>
	<path class="st11" d="M443.9,579c-11.7,0.7-23.2-2.7-34.9-3.1c-1.5-0.1-2.9,0-4.3,0.3c-1.5,0.4-2.9,1-4.3,1.7
		c-6.3,2.9-12.8,5.3-19.2,7.8l-7.5,2.8c-1.4,0.7-3,1-4.6,1c-0.7,0-1.6-0.2-2,0.4c-1.2,1.8-0.6,4.4,0.2,6.5c0.3,0.7,0.7,1.4,1.4,1.4
		c0.5,0,1-0.2,1.4-0.4c1.4-0.4,2.7,0.5,4.1,0.7c1.7,0.2,3.3-0.8,5-1.4c2.7-1,5.6-1,8.5-1.4c4.8-0.8,9.2-3,13.3-5.5
		c1.5-1.1,3.2-1.9,5-2.3c2.1-0.2,4.2,0,6.2,0.7c4.8,1.4,9.6,3,14.3,4.9c2.4,1.1,4.9,2,7.5,2.7c5.5,1.4,11.4,1.1,16.7-1
		c1.9-0.7,3.9-2,4-4.1c0.1-1.2-0.8-2.2-1.4-3.2c-0.4-0.6-0.8-1.3-1.2-1.9C449.9,582.7,447.4,578.8,443.9,579z"/>
	<path class="st4" d="M443.9,579c-11.7,0.7-23.2-2.7-34.9-3.1c-1.5-0.1-2.9,0-4.3,0.3c-1.5,0.4-2.9,1-4.3,1.7
		c-6.3,2.9-12.8,5.3-19.2,7.8l-7.5,2.8c-1.4,0.7-3,1-4.6,1c-0.7,0-1.6-0.2-2,0.4c-1.2,1.8-0.6,4.4,0.2,6.5c0.3,0.7,0.7,1.4,1.4,1.4
		c0.5,0,1-0.2,1.4-0.4c1.4-0.4,2.7,0.5,4.1,0.7c1.7,0.2,3.3-0.8,5-1.4c2.7-1,5.6-1,8.5-1.4c4.8-0.8,9.2-3,13.3-5.5
		c1.5-1.1,3.2-1.9,5-2.3c2.1-0.2,4.2,0,6.2,0.7c4.8,1.4,9.6,3,14.3,4.9c2.4,1.1,4.9,2,7.5,2.7c5.5,1.4,11.4,1.1,16.7-1
		c1.9-0.7,3.9-2,4-4.1c0.1-1.2-0.8-2.2-1.4-3.2c-0.4-0.6-0.8-1.3-1.2-1.9C449.9,582.7,447.4,578.8,443.9,579z"/>
	<path class="st10" d="M426.4,560.3c-2.1-0.9-3.7-2.6-4.7-4.6c-0.2-0.4-0.4-0.9-0.5-1.3c-0.6-1.5-1.6-2.8-2.8-3.9
		c-0.3-0.3-0.6-0.4-1-0.4c-0.4,0.1-0.7,0.4-0.8,0.8c-0.1,0.4-0.1,0.8-0.1,1.3c0.1,1,0.3,2,0.5,2.9l0.6,2.6c0.1,0.4,0.2,0.8,0.4,1.2
		c0.2,0.4,0.6,0.8,1,1.1c0.5,0.5,1,0.9,1.6,1.4c0.3,0.3,0.6,0.5,1,0.7c0.6,0.3,1.2,0.4,1.8,0.5c2.4,0.3,4.7,1.2,6.6,2.6
		c0,0,0-1.7,0-1.9c0-0.5-0.2-1-0.5-1.4C428.5,561,427.5,560.5,426.4,560.3z"/>
	<path class="st4" d="M426.4,560.3c-2.1-0.9-3.7-2.6-4.7-4.6c-0.2-0.4-0.4-0.9-0.5-1.3c-0.6-1.5-1.6-2.8-2.8-3.9
		c-0.3-0.3-0.6-0.4-1-0.4c-0.4,0.1-0.7,0.4-0.8,0.8c-0.1,0.4-0.1,0.8-0.1,1.3c0.1,1,0.3,2,0.5,2.9l0.6,2.6c0.1,0.4,0.2,0.8,0.4,1.2
		c0.2,0.4,0.6,0.8,1,1.1c0.5,0.5,1,0.9,1.6,1.4c0.3,0.3,0.6,0.5,1,0.7c0.6,0.3,1.2,0.4,1.8,0.5c2.4,0.3,4.7,1.2,6.6,2.6
		c0,0,0-1.7,0-1.9c0-0.5-0.2-1-0.5-1.4C428.5,561,427.5,560.5,426.4,560.3z"/>
	<path class="st11" d="M448.4,535.9c-0.8-0.2-1.6-0.1-2.2,0.3c-0.3,0.3-0.6,0.6-0.8,1c-0.6,1.1-1.1,2.3-1.5,3.5
		c-0.3,1-0.3,2.1-0.6,3.2c-0.6,1.9-2.1,3.5-2.2,5.5c-0.1,0.9,0.1,1.9-0.6,2.5c-0.2,0.1-0.3,0.3-0.5,0.4c-0.5,0.3-0.8,0.7-1.1,1.2
		c-0.2,0.4-0.5,0.8-0.8,1.1c-0.6,0.4-1.5,0.4-1.8,1s0.5,1.4,0.3,2.2s-0.8,0.9-1.3,1.3c-0.5,0.6-0.9,1.2-1.1,2
		c-1.9,0.4-3.9-0.1-5.4-1.3c0.7,2,0.9,4.1,0.9,6.2c0.1,0.7-0.1,1.4-0.5,1.9c2.3,0.2,4.5,0.6,6.7,1.2c0.9,0.3,2,0.3,2.9,0
		c0.5-0.3,1-0.6,1.3-1.1c1.2-1.2,2.5-2.5,2.8-4.2c0.1-1,0.1-1.9,0-2.9c0.1-1.2,0.4-2.4,0.7-3.5c0.6-2.4,1.1-4.8,1.3-7.2
		c0.1-1.5,1.4-2.7,2.1-4c1.3-2.5,2.6-5.2,2.7-8C449.6,537.2,449.3,536,448.4,535.9z"/>
	<path class="st4" d="M448.4,535.9c-0.8-0.2-1.6-0.1-2.2,0.3c-0.3,0.3-0.6,0.6-0.8,1c-0.6,1.1-1.1,2.3-1.5,3.5
		c-0.3,1-0.3,2.1-0.6,3.2c-0.6,1.9-2.1,3.5-2.2,5.5c-0.1,0.9,0.1,1.9-0.6,2.5c-0.2,0.1-0.3,0.3-0.5,0.4c-0.5,0.3-0.8,0.7-1.1,1.2
		c-0.2,0.4-0.5,0.8-0.8,1.1c-0.6,0.4-1.5,0.4-1.8,1s0.5,1.4,0.3,2.2s-0.8,0.9-1.3,1.3c-0.5,0.6-0.9,1.2-1.1,2
		c-1.9,0.4-3.9-0.1-5.4-1.3c0.7,2,0.9,4.1,0.9,6.2c0.1,0.7-0.1,1.4-0.5,1.9c2.3,0.2,4.5,0.6,6.7,1.2c0.9,0.3,2,0.3,2.9,0
		c0.5-0.3,1-0.6,1.3-1.1c1.2-1.2,2.5-2.5,2.8-4.2c0.1-1,0.1-1.9,0-2.9c0.1-1.2,0.4-2.4,0.7-3.5c0.6-2.4,1.1-4.8,1.3-7.2
		c0.1-1.5,1.4-2.7,2.1-4c1.3-2.5,2.6-5.2,2.7-8C449.6,537.2,449.3,536,448.4,535.9z"/>
	<path class="st11" d="M445.7,581.5c-2.4-1.2-4.2-3.3-6.2-5.2c-3.8-3.5-8.3-6-12.3-9.3c-2.6-2.2-5-4.7-7.8-6.6
		c-2.5-1.6-5.4-2.6-8.4-2.9c-0.3-0.1-0.7-0.1-1,0c-0.4,0.2-0.7,0.4-1,0.8c-1.3,1.4-2.4,3-3.4,4.7c-5,8.5-12.1,15.6-18,23.5
		c-0.1,0.2-0.2,0.4-0.3,0.6c0,0.3,0.1,0.6,0.2,0.9l1.2,2.3c0.7,1.3,1.8,2.8,3.2,2.6c0.6-0.2,1.2-0.6,1.7-1.1l5.4-5.2l5.6-5.4
		c3.3-3.2,6.7-6.4,8.8-10.4c1.7,2.9,4.7,4.8,6.7,7.5c0.8,1,1.4,2.1,2.1,3.2c1.1,1.7,2.4,3.3,3.6,5l6.5,8.3c0.8,1.2,1.8,2.2,3,3
		c1.6,0.9,3.4,1.3,5.2,1.4c2.4,0.2,4.9,0.3,7.3,0.3c1.9,0.1,3.7-0.3,5.5-1c1.7-0.8,2.9-2.5,3-4.4c-0.1-1-0.4-1.9-0.9-2.7
		C453.1,587,450.1,583.5,445.7,581.5z"/>
	<path class="st12" d="M451.4,538.3c-0.7,1-0.7,2.3,0,3.3c0.1,0.1,0.5,0.9,0.6,0.9c0.1,0,0.3-0.1,0.4-0.2c0.8-0.8,1.5-1.7,2.1-2.5
		c0.7-0.9,1.6-1.5,2.7-1.8c1.3-0.1,2.7,0.4,3.7,1.2c0.5,0.2,0.9,0.6,1.3,1c0.2,0.4,0.4,0.9,0.4,1.4c0.3,3,0.5,6.1,0.4,9.1
		c0.1,2.2-0.1,4.4-0.4,6.5c-0.2,1.1-0.5,2.2-0.7,3.3c-0.1,1-0.2,2-0.1,3v4.2c0,0.8,0,1.5,0.2,2.3c0.2,0.9,0.6,1.8,0.9,2.7
		c0.3,1,0.5,2.1,0.6,3.1l0.6,4.3c0.2,1.4,0.3,2.8-0.5,4c-0.4,0.5-0.9,0.9-1.2,1.4c-1.4,1.8-1,4.5-1.5,6.7c-0.5,1.6-1.4,3.1-2.7,4.2
		c-1,0.9-2.3,1.4-3.6,1.3c-1.8-0.3-2.8-2.2-3.3-3.9s-0.6-3.6-1.7-5.1c-1-1.1-2.1-2-3.3-2.8c-1.3-0.8-2.2-2-2.6-3.4
		c-0.1-0.6,0-1.3-0.1-1.9c-0.2-1.6-1.3-3-2.8-3.7c-0.9-0.3-2-0.5-2.5-1.3c1.3-0.8,2.2-2.1,2.6-3.5c0.4-1.5,0.6-3,0.6-4.5l0.3-5
		c0.1-2.3,0.2-4.5,1.2-6.5c0.4-0.9,1-1.8,1.5-2.6c0.6-1.3,1.1-2.5,1.5-3.9c0.7-2.1,1.4-4.1,2.1-6.2c0.2-1,0.6-2,1.1-2.9
		C449.7,539.6,450.4,538.5,451.4,538.3z"/>
	<path class="st11" d="M440.3,571h1.3l0.3-2c0-0.4,0.1-0.8,0.3-1.2c0.2-0.4,0.5-0.8,0.8-1.1c1.3-1.8,1.2-4.3,1.5-6.5
		c0.6-3,1.6-5.9,2.9-8.6l2.6-5.8c0.2-0.5,0.4-1,0.6-1.5c0.1-0.6,0.2-1.1,0.2-1.7c0-0.9,0.3-4.1,0.3-5c0-0.3-0.7-0.2-0.9-0.4
		c-0.3-0.6-0.8,1.1-1.4,1.5c-0.6,0.4-1,1-1.2,1.7c-0.6,1.4-0.9,3-1.4,4.4c-0.5,1.5-1.3,2.8-2.4,3.9c-0.5,0.5-1.1,0.8-1.6,1.3
		c-1.6,1.6-1.8,4.1-1.8,6.3C440.3,557.8,440,571,440.3,571z"/>
	<path class="st11" d="M459.4,535.9c-1.3,0.7-2.1,1.9-2.4,3.3c-0.2,1.4-0.6,2.7-1.2,4c-1.6,2.8-5.8,3.6-6.9,6.7
		c-0.3,1-0.4,2.1-0.5,3.2c-0.2,2.2-0.9,4.3-1.1,6.5c-0.1,1.7-0.1,3.4,0.1,5.1l1.5,17.2c0.3,2.5,0.1,5.1-0.4,7.6c1.5,0.2,3,0,4.3-0.7
		c1.4-0.6,2.6-1.5,3.9-2.2c2.2-1.2,4.7-2.1,6.7-3.8c0.4-0.3,0.7-0.6,0.9-1c0.3-0.7,0.5-1.5,0.6-2.3c0.2-0.6,0.4-1.2,0.7-1.8
		c0.7-1.7,1.3-3.5,1.9-5.3c0.4-1.2,0.6-2.4,0.9-3.6c0.2-1,0.3-2,0.3-3c0.1-1.6,0.4-3.1,0.9-4.5c1.3-3.5,2-7.2,2.1-10.9
		c0-0.5,0-1.1-0.1-1.6c-0.2-0.6-0.5-1.3-0.9-1.8c-0.6-1.1-1-2.4-1.5-3.5c-1.4-2.5-3.5-4.7-5.9-6.2
		C462.1,536.3,460.7,535.5,459.4,535.9z"/>
	<path class="st10" d="M429.2,564c-1-0.5-2-1.2-2.8-2.1c-0.4-0.4-0.7-0.9-1-1.3c-0.9-1-2.1-1.7-3.5-2c-1.3-0.3-2.7-0.4-4-0.4
		c-0.9-0.1-1.8,0-2.7,0.3c-0.9,0.3-1.5,1-1.8,1.9c-0.1,1.1,0.4,2.2,1.4,2.8c0.8,0.6,1.7,1.1,2.7,1.3c0.8,0.1,1.6,0.2,2.4,0.3
		c4.8,0.5,9,3.1,13.2,5.5c3.7,2.1,7.4,4,11.3,5.8c0.1-1.1,0.2-2.3,0.2-3.5c0-0.9-0.1-2.2-0.9-2.7c-1.2-0.5-2.4-0.8-3.6-1.1
		c-2.5-0.8-4.9-1.8-7.2-2.9C431.7,565.5,430.5,564.8,429.2,564z"/>
	<ellipse class="st10" cx="450.1" cy="528.4" rx="8.5" ry="8.6"/>
	<path class="st11" d="M461.9,545.6c-0.7,1-1.2,2-1.7,3.1c-1,2.2-2.7,4-3.5,6.3s-0.8,5.2-2.5,7.1c-0.3,0.3-0.6,0.7-0.8,1.1
		c0,0.3,0,0.5-0.1,0.8c-0.3,0.7-1.4,0.7-1.6,1.4c-0.1,0.2,0,0.4-0.1,0.6c-0.2,0.5-0.8,0.5-1.2,0.8c-0.8,0.6-0.7,1.9-1.3,2.7
		c-0.5,0.6-1.3,0.9-2.1,0.8c-0.8-0.2-1.5-0.4-2.2-0.8c-0.2-0.1-0.5-0.2-0.8-0.3c-0.3,0-0.7,0.1-0.9,0.3c-1.5,1.1-2.4,2.9-2.3,4.8
		c0.1,1.9,0.6,3.7,1.3,5.4c0.1,0.3,0.2,0.6,0.4,0.8c0.6,0.5,1.4,0.5,2.1,0.2c0.7-0.4,1.3-0.7,2.1-0.9c1.3-0.2,2.6,0.7,4,0.6
		c1-0.1,1.9-0.5,2.7-1.2c1.3-0.8,2.6-1.8,3.6-3c0.6-0.8,1-1.6,1.5-2.5c0.7-1,1.4-2,2.1-2.9l4.9-6c0.5-0.6,0.9-1.2,1.3-1.8
		c0.4-0.9,0.8-1.8,1-2.8c0.5-1.6,0.9-3.2,1-4.9c0-1.4-0.1-2.8-0.4-4.1c-0.1-1.3-0.5-2.7-1-3.9C466.5,545.1,463.9,543.3,461.9,545.6z
		"/>
	<path class="st14" d="M479,534.5c0-3.1-1.5-6-3.9-7.8c-0.1-5.6-4.2-10.3-9.7-11.1c-1.2-6-7-9.9-13-8.7c-4.6,0.9-8.1,4.6-8.8,9.3
		c-3.5-0.8-6.8,0.2-7.4,2.4s1.9,5,5.6,6c1.2,0.3,2.4,0.5,3.6,0.4c1.8,2.6,4.5,4.3,7.6,4.8c0.9,4.2,4.1,7.5,8.3,8.6
		c0.6,1.4,1.4,2.6,2.6,3.5c0,0.3,0,0.5,0,0.8c0,4,3.2,7.2,7.2,7.2c4,0,7.2-3.2,7.2-7.2c0,0,0,0,0,0c0-1.1-0.2-2.2-0.7-3.2
		C478.6,537.9,479,536.2,479,534.5z"/>
	<path class="st4" d="M438.6,519c0.6-2.2,3.8-3.2,7.4-2.4c0.9-5.4,5.5-9.4,11-9.5h0.7c-1-0.3-2.1-0.5-3.1-0.5
		c-5.5,0.1-10.1,4.1-11,9.5c-3.5-0.8-6.8,0.2-7.4,2.4s1.9,5,5.6,6c0.7,0.2,1.4,0.3,2.1,0.4C440.4,523.8,438,521.2,438.6,519z"/>
	<path class="st4" d="M466.3,543c0-0.3,0-0.5,0-0.8c-1.1-1-2-2.2-2.6-3.5c-4.2-1-7.4-4.4-8.3-8.6c-3.1-0.4-5.9-2.2-7.6-4.7
		c-0.7,0.1-1.4,0-2.1-0.1c1.8,2.4,4.4,4,7.4,4.4c0.9,4.2,4.1,7.5,8.3,8.6c0.6,1.4,1.4,2.6,2.6,3.5c0,0.3,0,0.5,0,0.8
		c-0.1,4,3.1,7.4,7.2,7.5C468.2,549,466.3,546.1,466.3,543z"/>
	
		<ellipse transform="matrix(-0.6049 -0.7963 0.7963 -0.6049 304.7825 1211.6017)" class="st10" cx="453" cy="530.2" rx="1.8" ry="1.3"/>
</g>
<g>
	<path class="st10" d="M1037.3,573.6c0.1,1.6,0.6,3.4,2.1,4c0.7,0.2,1.5,0.2,2.3,0c1.9-0.4,3.7-1.4,5.1-2.8c1.3-1.4,1.9-3.5,1.4-5.3
		c-0.5-1.7-2-3-3-4.6c-1.2-1.8-1.6-3.8-2.4-5.7C1036.1,559.8,1037,568.8,1037.3,573.6z"/>
	<path class="st2" d="M1030.4,497.5c-0.9,2.8,2.2,5.8,3.3,8.5c1,2.7,2.4,5.3,2.9,8.2c0.4,2,0.4,3.9,0.5,5.9c0.3,3.7,1.1,7.4,2.1,11
		c1.3,5.2,2.7,10.5,4.2,15.7c0.7,2.4,1.3,4.8,1.7,7.2c0.4,2.6,0.4,5.3,0,7.9c-2.6-0.8-5.4-0.5-7.8,0.7c-1.7-2.9-2.7-6-3-9.3
		c-0.1-1.9-0.1-3.9,0.1-5.8c0.3-5.5-2.2-11-2.3-16.5c0-1.9-0.1-3.8-0.5-5.7c-0.3-1.3-0.2-3.7-0.5-5c-0.5-2,1.5-3,1.4-5.1l-0.6-11.4
		C1031.6,501.8,1029.5,499.3,1030.4,497.5z"/>
	<path class="st4" d="M1030.4,497.5c-0.9,2.8,2.2,5.8,3.3,8.5c1,2.7,2.4,5.3,2.9,8.2c0.4,2,0.4,3.9,0.5,5.9c0.3,3.7,1.1,7.4,2.1,11
		c1.3,5.2,2.7,10.5,4.2,15.7c0.7,2.4,1.3,4.8,1.7,7.2c0.4,2.6,0.4,5.3,0,7.9c-2.6-0.8-5.4-0.5-7.8,0.7c-1.7-2.9-2.7-6-3-9.3
		c-0.1-1.9-0.1-3.9,0.1-5.8c0.3-5.5-2.2-11-2.3-16.5c0-1.9-0.1-3.8-0.5-5.7c-0.3-1.3-0.2-3.7-0.5-5c-0.5-2,1.5-3,1.4-5.1l-0.6-11.4
		C1031.6,501.8,1029.5,499.3,1030.4,497.5z"/>
	<path class="st10" d="M1000.4,488.6c0.2,0.7,0.5,1.3,0.9,1.8c4.2,5.6,8.9,10.7,14.1,15.4c0.5-0.5,1-1.1,1.3-1.8
		c2.4-4.2,3.6-8.9,3.4-13.7c-2.4-0.7-5.1-1.8-5.8-4c-0.6-1.8,0.2-3.9-0.9-5.5c-1.5-2.3-7.9-2.5-9.9-0.9c-1.3,1.1-0.9,2.1-1.3,3.5
		C1001.9,485,1000.1,487,1000.4,488.6z"/>
	<path class="st4" d="M1000.4,488.6c0.2,0.7,0.5,1.3,0.9,1.8c4.2,5.6,8.9,10.7,14.1,15.4c0.5-0.5,1-1.1,1.3-1.8
		c2.4-4.2,3.6-8.9,3.4-13.7c-2.4-0.7-5.1-1.8-5.8-4c-0.6-1.8,0.2-3.9-0.9-5.5c-1.5-2.3-7.9-2.5-9.9-0.9c-1.3,1.1-0.9,2.1-1.3,3.5
		C1001.9,485,1000.1,487,1000.4,488.6z"/>
	<path class="st2" d="M1002.5,671c0.7,0.5,1.4,0.8,2.2,0.9c7.8,1.9,15.9,2.5,23.9,1.9c1.1-0.1,2.5-0.6,2.2-1.6
		c-0.3-1-1.6-0.9-2.6-1.2c-0.9-0.3-1.6-1-2.2-1.6c-2.5-2.3-5.4-4.2-8.4-5.9c-0.7-0.5-1.5-0.9-2.4-1.1c-1-0.2-2.1,0-3.1,0.2
		c-2.6,0.5-7.5,0.4-9.6,2.2C1001.1,666.2,1000.8,669.6,1002.5,671z"/>
	<path class="st2" d="M1032.5,669c0,0.6,0.1,1.3,0.6,1.7c0.4,0.3,0.9,0.4,1.3,0.3c3.4,0,6.5-1.8,8.1-4.7l11.5-1.3
		c2.2-0.2,4.4-0.5,6.4-1.4c2.4-1,4.2-2.8,6.1-4.6c0.3-0.3,0.6-0.6,0.7-1c0.2-0.7-0.4-1.4-1.1-1.7c-0.7-0.2-1.5-0.3-2.2-0.1
		c-5.6,0.7-11.2,3.2-16.7,1.8c-1.3-0.3-2.7-0.9-4.1-0.8c-0.7,0.1-1.5,0.3-2.2,0.6c-1.8,0.6-7.1,1.5-8.3,3
		C1031.4,662.3,1032.5,667.3,1032.5,669z"/>
	<path class="st15" d="M1003.5,545.7c-1.6,2.5-5.1,3-7.5,4.8c-3.7,2.7-4.3,7.8-4.6,12.2c-0.1,3.1-0.2,6.2,0.5,9.3
		c0.5,2.1,1.4,4.1,2.1,6.2c1.4,4.5,1.8,9.2,2.1,13.9c0.6,11.8,0.1,23.7,1.6,35.5c0.5,3.4,1.1,6.7,1.4,10.1
		c1.1,11.2-0.8,22.7,2.3,33.5c3.4-3.5,8.1-5.5,13-5.6c1,0,2.1,0.1,3-0.3c0.9-0.4,1.7-1.5,1.3-2.4c-0.2-0.4-0.5-0.8-0.8-1.1
		c-1.4-2,1-4.8,0-6.9c-0.4-0.8-1.2-1.5-1.4-2.3c-0.3-1,0.2-1.9,0.4-2.9c0.3-2-0.9-3.8-1.5-5.7c-0.9-2.9-0.6-5.9-0.2-8.9
		c1.1-9.8,1.5-19.6,1.4-29.5c-0.1-6.7-0.4-13.5,1.6-19.8c3.7,3.4,6.9,7.3,9.5,11.5c1.6,2.6,3,5.4,3.5,8.4c0.4,2.2,0.3,4.4,0.2,6.6
		l-1.2,34c-0.2,6.9-0.4,13.9,2,20.4c6.3-3.2,12.7-6.3,19-9.6c-0.1-2.2-3.2-3-4.4-5c-0.4-0.8-0.6-1.7-0.7-2.6
		c-0.8-9.2,1.2-18.4,3-27.5c0.7-3.5,1.4-7,1.4-10.5c0-5.6-1.7-11-3.5-16.4c-1.9-5.6-3.8-11.3-5.7-16.9c-1.3-3.6-2.5-7.2-4.1-10.7
		c-1.5-3.3-3.2-6.5-4.5-9.9c-2-5.4-2.7-11.2-3.4-17C1020.7,542.2,1012,544.1,1003.5,545.7z"/>
	<ellipse class="st10" cx="1007.8" cy="473.3" rx="12" ry="11.5"/>
	<path class="st3" d="M1012.3,501.2l-0.9-6.2c0-0.7-0.2-1.4-0.6-2c-0.4-0.6-0.9-1-1.5-1.4l-8.4-5.9c-0.4-0.3-1-0.6-1.4-0.4
		c-0.3,0.2-0.5,0.5-0.6,0.8c-1.3,3.8-0.5,7.8,0,11.8c0.4,3.3,0.5,6.6,0.6,9.9c0.2,3,0.2,6,0,8.9c-0.5,5.2-2.1,10.4-1,15.4
		c0.7,3.4,1.9,6.5,2.2,9.9c0.2,2.4,0.1,4.8,0.9,7c2.9-1.2,6.1-1.1,9.2-0.9l7.6,0.4c1.1,0.1,2.1,0.1,3.2-0.1c1.2-0.2,2.3-0.7,3.3-1.2
		c2.7-1.5,5-3.4,6.9-5.8c-1.3-5.9,0-12.1-0.9-18.1c-0.5-3.5-1.7-6.8-2.3-10.3c-0.7-4.3-0.4-8.7-1.7-12.8c-0.7-2.1-1.6-4.1-2.7-6.1
		c-1.1-2.2-2.9-4-5.2-5.1c-0.4-0.2-0.9-0.3-1.4-0.3c-1.2,0.1-2,1.3-2.3,2.4c-0.4,1.3-0.5,2.8-0.8,4.1
		C1014.1,497.2,1013.4,499.5,1012.3,501.2z"/>
	<path class="st2" d="M987.7,575.5c1.6,1.6,4.5,1.2,6.4-0.1c4-2.9,4.4-8.5,4.6-13.3c0.1-1.7,0.2-3.6,1-5.1c1.3-2.4,4-3.6,6.2-5.2
		c5.3-3.7,8.4-9.9,9.3-16.1s-0.1-12.6-1.9-18.7c-3.1-10.5-8.3-20.3-13.6-29.9c-0.2-0.4-0.4-0.7-0.7-0.9c-1.1-0.6-2.2,0.6-3,1.6
		c-2.5,3.4-6.6,5.2-10.3,7.1c-3.8,2-7.6,4.6-8.7,8.6c-0.8,2.7-0.2,5.5,0.4,8.2s2.6,4.8,4.1,7.1c1.8,2.5,3.4,5.1,4.8,7.8
		c0.5,1,0.9,2.1,1.2,3.2c0.3,1.3,0.4,2.6,0.3,3.9c0.1,8.2,0.2,16.4-0.9,24.5c-0.6,4.6-1.5,9.2-1.1,13.8
		C986,573.5,986.8,574.6,987.7,575.5z"/>
	<path class="st10" d="M997.8,560.3c1.7,0.7,3.4,1.5,5.3,1.8c1.8,0.3,3.9,0.1,5.3-1c1.5-1.1,2.2-3.2,1.4-4.8c1.3,0,2.6,0,3.9-0.2
		c0.7-0.1,1.6-0.4,1.8-1.1c0.1-0.8-0.9-1.3-1.8-1.6l-4.6-1.2c-1.3-0.4-2.7-0.7-4.1-0.7c-0.9,0-1.7,0.1-2.6,0.2l-6.9,1
		c-0.2,0-0.4,0.1-0.5,0.2c-0.2,0.2-0.4,0.4-0.4,0.7c-0.3,1-1.9,3.9-1.4,4.9C993.7,559.3,996.9,559.8,997.8,560.3z"/>
	<path class="st2" d="M1041.5,564.6c-0.8,1.8-2.5,3.2-4.5,3.8c-0.4,0.1-0.9,0.2-1.3,0.1c-0.8-0.2-1.3-1-1.6-1.8
		c-8.1-17.8-7.7-38-12.8-56.8c-1.5-5.6-3.6-11.2-3.2-16.9c0.1-1,0.3-2.2,1.2-2.8c0.8-0.5,1.9-0.4,2.8,0c0.9,0.4,1.6,1,2.5,1.4
		c1.4,0.7,2.9,0.9,4.2,1.6c1.9,1.1,2.9,3.3,3.8,5.3c1.8,4.3,3.7,8.7,3.8,13.3c0.3,9-3.8,17.7-1.7,26.4c0.5,1.7,1,3.4,1.7,5.1
		c2.2,6,4,12.2,5.3,18.5C1041.9,562.8,1042,563.6,1041.5,564.6z"/>
	<path class="st15" d="M1000,474.3c0.7-1.1,1.7-2.1,2.1-3.4c0.3-0.9,0.2-1.9,0.5-2.7c0.8-2.2,3.7-3,6-2.6s4.5,1.6,6.8,2.2
		c1.3,0.3,3.1,0.2,3.4-1c0.2-0.8-0.3-1.6-0.9-2.3l-6.8-8.4c-0.9,0.2-1.9,0.4-2.7,0c-0.5-0.2-0.8-0.7-1.3-0.8c-1.4-0.4-2.6,1.7-4,1.3
		c-0.4-0.1-0.7-0.4-1.1-0.4c-1.1-0.1-1.6,1.7-2.7,1.8c-0.5,0-0.9-0.3-1.4-0.2c-0.4,0.1-0.8,0.3-1.1,0.6c-2.3,2.3-3.2,5.7-3.1,8.8
		c0.1,3.2-0.4,6.3,0.8,9.2c0.6,1.3,1.7,2.8,3.1,2.4c0-1.7,1.7-3.5,1.7-5.2"/>
	<g class="st1">
		<path d="M1023.2,591c-2.4-3.9-5.4-7.4-8.9-10.5c-2,6.4-1.6,13.2-1.6,19.8c0.1,9.8-0.3,19.7-1.4,29.5c-0.3,3-0.7,6.1,0.2,8.9
			c0.6,1.9,1.8,3.7,1.5,5.7c-0.1,1-0.6,2-0.4,2.9c0.2,0.9,1.1,1.5,1.4,2.3c1,2.2-1.3,5,0,6.9c0.3,0.3,0.6,0.7,0.8,1.1
			c0.4,0.9-0.4,2-1.3,2.4c-0.9,0.4-2,0.3-3,0.3c-3.9,0.1-7.6,1.3-10.7,3.6c0.3,2.4,0.7,4.8,1.4,7.1c3.4-3.5,8.1-5.5,13-5.6
			c1,0,2.1,0.1,3-0.3c0.9-0.4,1.7-1.5,1.3-2.4c-0.2-0.4-0.5-0.8-0.8-1.1c-1.4-2,1-4.8,0-6.9c-0.4-0.8-1.2-1.5-1.4-2.3
			c-0.3-1,0.2-1.9,0.4-2.9c0.3-2-0.9-3.8-1.5-5.7c-0.9-2.9-0.6-5.9-0.2-8.9c1.1-9.8,1.5-19.6,1.4-29.5c-0.1-6.7-0.4-13.5,1.6-19.8
			C1019.9,587.3,1021.6,589.1,1023.2,591z"/>
	</g>
	<g class="st1">
		<path d="M993.7,467.7c0-0.5,0-1.1,0-1.6c0,0.4,0,0.8,0,1.3C993.7,467.5,993.7,467.6,993.7,467.7z"/>
		<path d="M1015.5,466.2c-2.3-0.6-4.4-1.8-6.8-2.2c-2.4-0.4-5.2,0.4-6,2.6c-0.3,0.9-0.3,1.9-0.5,2.7c-0.4,1.3-1.4,2.2-2.1,3.4
			l-0.7-0.6c0,1.7-1.7,3.5-1.7,5.2c-1.4,0.4-2.5-1.1-3.1-2.4c-0.6-1.4-0.9-2.9-0.8-4.4c0,2.1,0,4.1,0.8,6c0.6,1.3,1.7,2.8,3.1,2.4
			c0-1.7,1.7-3.5,1.7-5.2l0.7,0.6c0.7-1.1,1.7-2.1,2.1-3.4c0.3-0.9,0.2-1.9,0.5-2.7c0.8-2.2,3.7-3,6-2.6s4.5,1.6,6.8,2.2
			c1.3,0.3,3.1,0.2,3.4-1c0.1-0.4,0-0.9-0.2-1.2C1018.1,466.5,1016.6,466.5,1015.5,466.2z"/>
	</g>
	<path class="st2" d="M976.7,515.4c-0.3,2.4-0.9,4.8-1.5,7.2l-2.9,11.3c-0.3,1.2-0.6,2.4-0.5,3.7c0.2,1.7,1.2,3.1,2.2,4.5
		c5.6,7.8,12.5,14.6,20.3,20.3c-0.5-2.2,1.2-4.3,2.7-6.1c1.5-1.8,3-3.5,5-4.6c-5-4.5-9.8-9.2-14.4-14c-0.5-0.5-0.9-1-1.3-1.6
		c-1.1-2.1,0-4.6,1-6.7c3.1-6.9,4.5-14.6,2.6-21.9c-0.7-2.7-2.1-5.4-4.4-7.1c-1-0.7-2.4-1.2-3.6-0.7c-0.5,0.3-0.9,0.6-1.2,1.1
		C976.9,505,977.3,510.2,976.7,515.4z"/>
</g>
</svg>
