<?xml version="1.0" encoding="utf-8"?>
<!-- Generator: Adobe Illustrator 19.0.0, SVG Export Plug-In . SVG Version: 6.00 Build 0)  -->
<svg version="1.1" id="_x39_b8dff4b-368a-4ab8-bc0b-59c96572f6a5"
	 xmlns="http://www.w3.org/2000/svg" xmlns:xlink="http://www.w3.org/1999/xlink" x="0px" y="0px" viewBox="136 41.1 883 711.9"
	 style="enable-background:new 136 41.1 883 711.9;" xml:space="preserve">
<style type="text/css">
	.st0{fill:#F2F2F2;}
	.st1{fill:none;stroke:#B3B3B3;stroke-miterlimit:10;}
	.st2{fill:#4285F4;}
	.st3{opacity:5.000000e-002;enable-background:new    ;}
	.st4{fill:url(#SVGID_1_);}
	.st5{opacity:0.2;}
	.st6{fill:#FFFFFF;}
	.st7{opacity:0.2;fill:#FFFFFF;enable-background:new    ;}
</style>
<title>air support</title>
<path class="st0" d="M782.3,66.1h180.9c5.5,0,10,4.5,10,10v1.8c0,5.5-4.5,10-10,10H782.3c-5.5,0-10-4.5-10-10V76
	C772.3,70.5,776.8,66.1,782.3,66.1z"/>
<path class="st0" d="M827.3,84.5h180.9c5.5,0,10,4.5,10,10v1.8c0,5.5-4.5,10-10,10H827.3c-5.5,0-10-4.5-10-10v-1.8
	C817.3,89,821.8,84.5,827.3,84.5z"/>
<path class="st0" d="M751,100.6h180.9c5.5,0,10,4.5,10,10v1.8c0,5.5-4.5,10-10,10H751c-5.5,0-10-4.5-10-10v-1.8
	C741,105.1,745.5,100.6,751,100.6z"/>
<path class="st0" d="M438.4,314.3h180.9c5.5,0,10,4.5,10,10v1.8c0,5.5-4.5,10-10,10H438.4c-5.5,0-10-4.5-10-10v-1.8
	C428.5,318.8,432.9,314.3,438.4,314.3z"/>
<path class="st0" d="M483.4,332.8h180.9c5.5,0,10,4.5,10,10v1.8c0,5.5-4.5,10-10,10H483.4c-5.5,0-10-4.5-10-10v-1.8
	C473.5,337.3,477.9,332.8,483.4,332.8z"/>
<path class="st0" d="M407.1,348.9H588c5.5,0,10,4.5,10,10v1.8c0,5.5-4.5,10-10,10H407.1c-5.5,0-10-4.5-10-10v-1.8
	C397.1,353.3,401.6,348.9,407.1,348.9z"/>
<path class="st0" d="M237.5,164.9h180.9c5.5,0,10,4.5,10,10v1.8c0,5.5-4.5,10-10,10H237.5c-5.5,0-10-4.5-10-10v-1.8
	C227.6,169.3,232,164.9,237.5,164.9z"/>
<path class="st0" d="M282.5,183.4h180.9c5.5,0,10,4.5,10,10v1.8c0,5.5-4.5,10-10,10H282.5c-5.5,0-10-4.5-10-10v-1.8
	C272.6,187.8,277,183.4,282.5,183.4z"/>
<path class="st0" d="M206.2,199.4h180.9c5.5,0,10,4.5,10,10v1.8c0,5.5-4.5,10-10,10H206.2c-5.5,0-10-4.5-10-10v-1.8
	C196.3,203.9,200.7,199.4,206.2,199.4z"/>
<polyline class="st1" points="861.5,442.1 851.9,388.2 882.4,386.7 882.4,442.1 903.3,442.1 924.2,382.6 "/>
<path class="st2" d="M867.9,436.4h29c15.1,0,27.3,12.2,27.3,27.3v4.9c0,15.1-12.2,27.3-27.3,27.3h-29c-15.1,0-27.3-12.2-27.3-27.3
	v-4.9C840.6,448.7,852.9,436.4,867.9,436.4z"/>
<path class="st3" d="M895.3,436.4h-24.1c-16.4,0-29.7,13.3-29.7,29.7l0,0c0,0.7,0,1.3,0.1,2c1.1-15.6,14-27.7,29.7-27.7h24.1
	c15.6,0.1,28.6,12.1,29.7,27.7c0-0.7,0.1-1.3,0.1-2l0,0C925,449.8,911.7,436.5,895.3,436.4z"/>
<linearGradient id="SVGID_1_" gradientUnits="userSpaceOnUse" x1="1046.625" y1="302.36" x2="1046.625" y2="551.0001" gradientTransform="matrix(1 0 0 -1 -158.5 702.21)">
	<stop  offset="0" style="stop-color:#808080;stop-opacity:0.25"/>
	<stop  offset="0.54" style="stop-color:#808080;stop-opacity:0.12"/>
	<stop  offset="1" style="stop-color:#808080;stop-opacity:0.1"/>
</linearGradient>
<path class="st4" d="M1009.2,275.5c0,68.7-57.4,124.3-118.4,124.3s-123.7-55.7-123.7-124.3s62.6-124.3,123.7-124.3
	S1009.2,206.9,1009.2,275.5z"/>
<path class="st2" d="M1003.5,275.5c0,65.4-54.7,118.5-112.9,118.5s-117.9-53-117.9-118.5s59.7-118.5,117.9-118.5
	S1003.5,210.1,1003.5,275.5z"/>
<rect x="872.5" y="398.2" class="st2" width="26.2" height="9.1"/>
<g class="st5">
	<path d="M890.6,156.6c-1.4,0-2.8,0-4.2,0.1c56.6,2.4,108.7,54.5,108.7,118.4s-52.1,115.9-108.7,118.4c1.4,0.1,2.8,0.1,4.2,0.1
		c58.2,0,112.9-53,112.9-118.5S948.8,156.6,890.6,156.6z"/>
</g>
<g class="st5">
	<path class="st6" d="M779.4,275.5c0-64.5,58-117,115.4-118.5c-0.8,0-1.7,0-2.5,0c-58.2,0-117.9,53-117.9,118.5
		s59.7,118.5,117.9,118.5c0.8,0,1.7,0,2.5,0C837.4,392.5,779.4,340.1,779.4,275.5z"/>
</g>
<rect x="849.3" y="377.4" class="st2" width="75.3" height="24.5"/>
<path class="st7" d="M849.3,165.7c0,0-89.4,102.2,0,219.7l29.5-0.1c0,0-81.5-97.1-3.7-227l-14.5,3.3L849.3,165.7z"/>
<path class="st7" d="M927,164.1c0,0,89.4,103.7,0,221.3l-29.5-0.1c0,0,81.5-98,3.7-227.9l14.5,2.9L927,164.1z"/>
</svg>
